<mxfile host="app.diagrams.net" agent="Mozilla/5.0 (Windows NT 10.0; Win64; x64) AppleWebKit/537.36 (KHTML, like Gecko) Chrome/136.0.0.0 Safari/537.36 Edg/136.0.0.0" version="27.0.5">
  <diagram name="Page-1" id="n3tJ63SBIaaYBElga2Oz">
    <mxGraphModel dx="2428" dy="772" grid="1" gridSize="10" guides="1" tooltips="1" connect="1" arrows="1" fold="1" page="1" pageScale="1" pageWidth="850" pageHeight="1100" math="0" shadow="0">
      <root>
        <mxCell id="0" />
        <mxCell id="1" parent="0" />
        <mxCell id="hbLjimjaeWcvPkLzuB9d-2" value="Library" style="whiteSpace=wrap;html=1;align=center;" vertex="1" parent="1">
          <mxGeometry x="190" y="395" width="100" height="40" as="geometry" />
        </mxCell>
        <mxCell id="hbLjimjaeWcvPkLzuB9d-3" value="Book" style="whiteSpace=wrap;html=1;align=center;" vertex="1" parent="1">
          <mxGeometry x="565" y="120" width="100" height="40" as="geometry" />
        </mxCell>
        <mxCell id="hbLjimjaeWcvPkLzuB9d-4" value="Member&amp;nbsp;" style="whiteSpace=wrap;html=1;align=center;" vertex="1" parent="1">
          <mxGeometry x="1020" y="250" width="100" height="40" as="geometry" />
        </mxCell>
        <mxCell id="hbLjimjaeWcvPkLzuB9d-5" value="Loan" style="whiteSpace=wrap;html=1;align=center;" vertex="1" parent="1">
          <mxGeometry x="565" y="565" width="100" height="40" as="geometry" />
        </mxCell>
        <mxCell id="hbLjimjaeWcvPkLzuB9d-6" value="Fine Payment" style="whiteSpace=wrap;html=1;align=center;" vertex="1" parent="1">
          <mxGeometry x="565" y="750" width="100" height="40" as="geometry" />
        </mxCell>
        <mxCell id="hbLjimjaeWcvPkLzuB9d-7" value="Staff" style="whiteSpace=wrap;html=1;align=center;" vertex="1" parent="1">
          <mxGeometry x="188.12" y="605" width="100" height="40" as="geometry" />
        </mxCell>
        <mxCell id="hbLjimjaeWcvPkLzuB9d-8" value="Review" style="whiteSpace=wrap;html=1;align=center;" vertex="1" parent="1">
          <mxGeometry x="1010" y="750" width="100" height="40" as="geometry" />
        </mxCell>
        <mxCell id="hbLjimjaeWcvPkLzuB9d-9" value="Name" style="ellipse;whiteSpace=wrap;html=1;align=center;" vertex="1" parent="1">
          <mxGeometry x="120" y="255" width="70" height="20" as="geometry" />
        </mxCell>
        <mxCell id="hbLjimjaeWcvPkLzuB9d-10" value="Library_ID" style="ellipse;whiteSpace=wrap;html=1;align=center;fontStyle=4;" vertex="1" parent="1">
          <mxGeometry x="85" y="310" width="70" height="20" as="geometry" />
        </mxCell>
        <mxCell id="hbLjimjaeWcvPkLzuB9d-11" value="" style="endArrow=none;html=1;rounded=0;exitX=0.5;exitY=1;exitDx=0;exitDy=0;entryX=0;entryY=0;entryDx=0;entryDy=0;" edge="1" parent="1" source="hbLjimjaeWcvPkLzuB9d-10" target="hbLjimjaeWcvPkLzuB9d-2">
          <mxGeometry relative="1" as="geometry">
            <mxPoint x="135" y="345" as="sourcePoint" />
            <mxPoint x="380" y="485" as="targetPoint" />
          </mxGeometry>
        </mxCell>
        <mxCell id="hbLjimjaeWcvPkLzuB9d-12" value="" style="endArrow=none;html=1;rounded=0;exitX=0.389;exitY=1.028;exitDx=0;exitDy=0;exitPerimeter=0;entryX=0.25;entryY=0;entryDx=0;entryDy=0;" edge="1" parent="1" source="hbLjimjaeWcvPkLzuB9d-9" target="hbLjimjaeWcvPkLzuB9d-2">
          <mxGeometry relative="1" as="geometry">
            <mxPoint x="220" y="485" as="sourcePoint" />
            <mxPoint x="380" y="485" as="targetPoint" />
          </mxGeometry>
        </mxCell>
        <mxCell id="hbLjimjaeWcvPkLzuB9d-13" value="Location" style="ellipse;whiteSpace=wrap;html=1;align=center;" vertex="1" parent="1">
          <mxGeometry x="165" y="285" width="55" height="20" as="geometry" />
        </mxCell>
        <mxCell id="hbLjimjaeWcvPkLzuB9d-14" value="" style="endArrow=none;html=1;rounded=0;exitX=0.389;exitY=1.028;exitDx=0;exitDy=0;exitPerimeter=0;entryX=0.5;entryY=0;entryDx=0;entryDy=0;" edge="1" parent="1" source="hbLjimjaeWcvPkLzuB9d-13" target="hbLjimjaeWcvPkLzuB9d-2">
          <mxGeometry relative="1" as="geometry">
            <mxPoint x="285" y="485" as="sourcePoint" />
            <mxPoint x="280" y="395" as="targetPoint" />
          </mxGeometry>
        </mxCell>
        <mxCell id="hbLjimjaeWcvPkLzuB9d-15" value="EstablishedYear" style="ellipse;whiteSpace=wrap;html=1;align=center;" vertex="1" parent="1">
          <mxGeometry x="265" y="245" width="95" height="20" as="geometry" />
        </mxCell>
        <mxCell id="hbLjimjaeWcvPkLzuB9d-16" value="" style="endArrow=none;html=1;rounded=0;exitX=0.389;exitY=1.028;exitDx=0;exitDy=0;exitPerimeter=0;entryX=0.5;entryY=0;entryDx=0;entryDy=0;" edge="1" parent="1" source="hbLjimjaeWcvPkLzuB9d-15">
          <mxGeometry relative="1" as="geometry">
            <mxPoint x="330" y="485" as="sourcePoint" />
            <mxPoint x="285" y="395" as="targetPoint" />
          </mxGeometry>
        </mxCell>
        <mxCell id="hbLjimjaeWcvPkLzuB9d-18" value="" style="endArrow=none;html=1;rounded=0;exitX=0.433;exitY=0.945;exitDx=0;exitDy=0;entryX=0.75;entryY=0;entryDx=0;entryDy=0;exitPerimeter=0;" edge="1" parent="1" source="hbLjimjaeWcvPkLzuB9d-47" target="hbLjimjaeWcvPkLzuB9d-2">
          <mxGeometry relative="1" as="geometry">
            <mxPoint x="220" y="245" as="sourcePoint" />
            <mxPoint x="330" y="445" as="targetPoint" />
          </mxGeometry>
        </mxCell>
        <mxCell id="hbLjimjaeWcvPkLzuB9d-19" value="Book_ID" style="ellipse;whiteSpace=wrap;html=1;align=center;fontStyle=4;" vertex="1" parent="1">
          <mxGeometry x="495" y="50" width="70" height="20" as="geometry" />
        </mxCell>
        <mxCell id="hbLjimjaeWcvPkLzuB9d-20" value="" style="endArrow=none;html=1;rounded=0;exitX=0.5;exitY=1;exitDx=0;exitDy=0;entryX=0;entryY=0;entryDx=0;entryDy=0;" edge="1" parent="1" source="hbLjimjaeWcvPkLzuB9d-19" target="hbLjimjaeWcvPkLzuB9d-3">
          <mxGeometry relative="1" as="geometry">
            <mxPoint x="615" y="210" as="sourcePoint" />
            <mxPoint x="585" y="120" as="targetPoint" />
          </mxGeometry>
        </mxCell>
        <mxCell id="hbLjimjaeWcvPkLzuB9d-23" value="ISBN" style="ellipse;whiteSpace=wrap;html=1;align=center;" vertex="1" parent="1">
          <mxGeometry x="540" y="20" width="70" height="20" as="geometry" />
        </mxCell>
        <mxCell id="hbLjimjaeWcvPkLzuB9d-24" value="" style="endArrow=none;html=1;rounded=0;exitX=0.389;exitY=1.028;exitDx=0;exitDy=0;exitPerimeter=0;entryX=0.25;entryY=0;entryDx=0;entryDy=0;" edge="1" parent="1" source="hbLjimjaeWcvPkLzuB9d-23" target="hbLjimjaeWcvPkLzuB9d-3">
          <mxGeometry relative="1" as="geometry">
            <mxPoint x="640" y="250" as="sourcePoint" />
            <mxPoint x="625" y="170" as="targetPoint" />
          </mxGeometry>
        </mxCell>
        <mxCell id="hbLjimjaeWcvPkLzuB9d-25" value="Title" style="ellipse;whiteSpace=wrap;html=1;align=center;" vertex="1" parent="1">
          <mxGeometry x="610" y="10" width="70" height="20" as="geometry" />
        </mxCell>
        <mxCell id="hbLjimjaeWcvPkLzuB9d-26" value="" style="endArrow=none;html=1;rounded=0;exitX=0.389;exitY=1.028;exitDx=0;exitDy=0;exitPerimeter=0;entryX=0.5;entryY=0;entryDx=0;entryDy=0;" edge="1" parent="1" source="hbLjimjaeWcvPkLzuB9d-25" target="hbLjimjaeWcvPkLzuB9d-3">
          <mxGeometry relative="1" as="geometry">
            <mxPoint x="710" y="240" as="sourcePoint" />
            <mxPoint x="630" y="110" as="targetPoint" />
          </mxGeometry>
        </mxCell>
        <mxCell id="hbLjimjaeWcvPkLzuB9d-27" value="Genre" style="ellipse;whiteSpace=wrap;html=1;align=center;" vertex="1" parent="1">
          <mxGeometry x="675" y="20" width="70" height="20" as="geometry" />
        </mxCell>
        <mxCell id="hbLjimjaeWcvPkLzuB9d-28" value="" style="endArrow=none;html=1;rounded=0;exitX=0.389;exitY=1.028;exitDx=0;exitDy=0;exitPerimeter=0;entryX=0.75;entryY=0;entryDx=0;entryDy=0;" edge="1" parent="1" source="hbLjimjaeWcvPkLzuB9d-27" target="hbLjimjaeWcvPkLzuB9d-3">
          <mxGeometry relative="1" as="geometry">
            <mxPoint x="775" y="250" as="sourcePoint" />
            <mxPoint x="680" y="130" as="targetPoint" />
          </mxGeometry>
        </mxCell>
        <mxCell id="hbLjimjaeWcvPkLzuB9d-29" value="Price" style="ellipse;whiteSpace=wrap;html=1;align=center;" vertex="1" parent="1">
          <mxGeometry x="730" y="40" width="70" height="20" as="geometry" />
        </mxCell>
        <mxCell id="hbLjimjaeWcvPkLzuB9d-30" value="" style="endArrow=none;html=1;rounded=0;exitX=0.389;exitY=1.028;exitDx=0;exitDy=0;exitPerimeter=0;entryX=1;entryY=0;entryDx=0;entryDy=0;" edge="1" parent="1" source="hbLjimjaeWcvPkLzuB9d-29" target="hbLjimjaeWcvPkLzuB9d-3">
          <mxGeometry relative="1" as="geometry">
            <mxPoint x="830" y="270" as="sourcePoint" />
            <mxPoint x="695" y="140" as="targetPoint" />
          </mxGeometry>
        </mxCell>
        <mxCell id="hbLjimjaeWcvPkLzuB9d-31" value="AvailableStatus" style="ellipse;whiteSpace=wrap;html=1;align=center;" vertex="1" parent="1">
          <mxGeometry x="425" y="70" width="95" height="30" as="geometry" />
        </mxCell>
        <mxCell id="hbLjimjaeWcvPkLzuB9d-32" value="" style="endArrow=none;html=1;rounded=0;exitX=0.389;exitY=1.028;exitDx=0;exitDy=0;exitPerimeter=0;entryX=0;entryY=0.25;entryDx=0;entryDy=0;" edge="1" parent="1" source="hbLjimjaeWcvPkLzuB9d-31" target="hbLjimjaeWcvPkLzuB9d-3">
          <mxGeometry relative="1" as="geometry">
            <mxPoint x="670" y="410" as="sourcePoint" />
            <mxPoint x="545" y="260" as="targetPoint" />
          </mxGeometry>
        </mxCell>
        <mxCell id="hbLjimjaeWcvPkLzuB9d-33" value="ShelfLocation" style="ellipse;whiteSpace=wrap;html=1;align=center;" vertex="1" parent="1">
          <mxGeometry x="730" y="70" width="85" height="20" as="geometry" />
        </mxCell>
        <mxCell id="hbLjimjaeWcvPkLzuB9d-34" value="" style="endArrow=none;html=1;rounded=0;exitX=0.389;exitY=1.028;exitDx=0;exitDy=0;exitPerimeter=0;entryX=1;entryY=0.25;entryDx=0;entryDy=0;" edge="1" parent="1" source="hbLjimjaeWcvPkLzuB9d-33" target="hbLjimjaeWcvPkLzuB9d-3">
          <mxGeometry relative="1" as="geometry">
            <mxPoint x="830" y="300" as="sourcePoint" />
            <mxPoint x="665" y="150" as="targetPoint" />
          </mxGeometry>
        </mxCell>
        <mxCell id="hbLjimjaeWcvPkLzuB9d-35" value="Member Id" style="ellipse;whiteSpace=wrap;html=1;align=center;fontStyle=4;" vertex="1" parent="1">
          <mxGeometry x="1205" y="165" width="90" height="30" as="geometry" />
        </mxCell>
        <mxCell id="hbLjimjaeWcvPkLzuB9d-36" value="" style="endArrow=none;html=1;rounded=0;exitX=0.5;exitY=1;exitDx=0;exitDy=0;entryX=1;entryY=0.5;entryDx=0;entryDy=0;" edge="1" parent="1" source="hbLjimjaeWcvPkLzuB9d-35" target="hbLjimjaeWcvPkLzuB9d-4">
          <mxGeometry relative="1" as="geometry">
            <mxPoint x="1022.5" y="195" as="sourcePoint" />
            <mxPoint x="1032" y="245" as="targetPoint" />
          </mxGeometry>
        </mxCell>
        <mxCell id="hbLjimjaeWcvPkLzuB9d-37" value="FullName" style="ellipse;whiteSpace=wrap;html=1;align=center;" vertex="1" parent="1">
          <mxGeometry x="1225" y="215" width="80" height="20" as="geometry" />
        </mxCell>
        <mxCell id="hbLjimjaeWcvPkLzuB9d-38" value="" style="endArrow=none;html=1;rounded=0;exitX=0.5;exitY=1;exitDx=0;exitDy=0;entryX=1;entryY=0.5;entryDx=0;entryDy=0;" edge="1" parent="1" source="hbLjimjaeWcvPkLzuB9d-37" target="hbLjimjaeWcvPkLzuB9d-4">
          <mxGeometry relative="1" as="geometry">
            <mxPoint x="1177.5" y="185" as="sourcePoint" />
            <mxPoint x="1337.5" y="185" as="targetPoint" />
          </mxGeometry>
        </mxCell>
        <mxCell id="hbLjimjaeWcvPkLzuB9d-40" value="Email" style="ellipse;whiteSpace=wrap;html=1;align=center;" vertex="1" parent="1">
          <mxGeometry x="1117.5" y="195" width="80" height="20" as="geometry" />
        </mxCell>
        <mxCell id="hbLjimjaeWcvPkLzuB9d-41" value="" style="endArrow=none;html=1;rounded=0;exitX=0.5;exitY=1;exitDx=0;exitDy=0;entryX=1;entryY=0.25;entryDx=0;entryDy=0;" edge="1" parent="1" source="hbLjimjaeWcvPkLzuB9d-40" target="hbLjimjaeWcvPkLzuB9d-4">
          <mxGeometry relative="1" as="geometry">
            <mxPoint x="1352.5" y="480" as="sourcePoint" />
            <mxPoint x="1220" y="550" as="targetPoint" />
          </mxGeometry>
        </mxCell>
        <mxCell id="hbLjimjaeWcvPkLzuB9d-43" value="" style="endArrow=none;html=1;rounded=0;exitX=0;exitY=1;exitDx=0;exitDy=0;entryX=1;entryY=0.75;entryDx=0;entryDy=0;" edge="1" parent="1" source="hbLjimjaeWcvPkLzuB9d-46" target="hbLjimjaeWcvPkLzuB9d-4">
          <mxGeometry relative="1" as="geometry">
            <mxPoint x="1327.5" y="490" as="sourcePoint" />
            <mxPoint x="1202.5" y="560" as="targetPoint" />
          </mxGeometry>
        </mxCell>
        <mxCell id="hbLjimjaeWcvPkLzuB9d-46" value="PhoneNumber" style="ellipse;shape=doubleEllipse;margin=3;whiteSpace=wrap;html=1;align=center;" vertex="1" parent="1">
          <mxGeometry x="1155" y="255" width="80" height="30" as="geometry" />
        </mxCell>
        <mxCell id="hbLjimjaeWcvPkLzuB9d-47" value="ContactNumber" style="ellipse;shape=doubleEllipse;margin=3;whiteSpace=wrap;html=1;align=center;" vertex="1" parent="1">
          <mxGeometry x="165" y="210" width="90" height="35" as="geometry" />
        </mxCell>
        <mxCell id="hbLjimjaeWcvPkLzuB9d-48" value="StartDate" style="ellipse;whiteSpace=wrap;html=1;align=center;" vertex="1" parent="1">
          <mxGeometry x="1155" y="295" width="80" height="20" as="geometry" />
        </mxCell>
        <mxCell id="hbLjimjaeWcvPkLzuB9d-49" value="" style="endArrow=none;html=1;rounded=0;exitX=1;exitY=1;exitDx=0;exitDy=0;entryX=0;entryY=1;entryDx=0;entryDy=0;" edge="1" parent="1" source="hbLjimjaeWcvPkLzuB9d-4" target="hbLjimjaeWcvPkLzuB9d-48">
          <mxGeometry relative="1" as="geometry">
            <mxPoint x="1272.5" y="480" as="sourcePoint" />
            <mxPoint x="1432.5" y="480" as="targetPoint" />
          </mxGeometry>
        </mxCell>
        <mxCell id="hbLjimjaeWcvPkLzuB9d-50" value="Loan_ID" style="ellipse;whiteSpace=wrap;html=1;align=center;fontStyle=4;" vertex="1" parent="1">
          <mxGeometry x="725" y="630" width="80" height="20" as="geometry" />
        </mxCell>
        <mxCell id="hbLjimjaeWcvPkLzuB9d-51" value="" style="endArrow=none;html=1;rounded=0;exitX=0;exitY=1;exitDx=0;exitDy=0;entryX=1;entryY=1;entryDx=0;entryDy=0;" edge="1" parent="1" source="hbLjimjaeWcvPkLzuB9d-50" target="hbLjimjaeWcvPkLzuB9d-5">
          <mxGeometry relative="1" as="geometry">
            <mxPoint x="250" y="420" as="sourcePoint" />
            <mxPoint x="410" y="420" as="targetPoint" />
          </mxGeometry>
        </mxCell>
        <mxCell id="hbLjimjaeWcvPkLzuB9d-52" value="LoanDate" style="ellipse;whiteSpace=wrap;html=1;align=center;" vertex="1" parent="1">
          <mxGeometry x="680" y="450" width="70" height="20" as="geometry" />
        </mxCell>
        <mxCell id="hbLjimjaeWcvPkLzuB9d-53" value="" style="endArrow=none;html=1;rounded=0;exitX=0.5;exitY=1;exitDx=0;exitDy=0;entryX=1;entryY=0.25;entryDx=0;entryDy=0;" edge="1" parent="1" source="hbLjimjaeWcvPkLzuB9d-52" target="hbLjimjaeWcvPkLzuB9d-5">
          <mxGeometry relative="1" as="geometry">
            <mxPoint x="250" y="310" as="sourcePoint" />
            <mxPoint x="410" y="310" as="targetPoint" />
          </mxGeometry>
        </mxCell>
        <mxCell id="hbLjimjaeWcvPkLzuB9d-54" value="DueDate" style="ellipse;whiteSpace=wrap;html=1;align=center;" vertex="1" parent="1">
          <mxGeometry x="710" y="490" width="60" height="20" as="geometry" />
        </mxCell>
        <mxCell id="hbLjimjaeWcvPkLzuB9d-55" value="" style="endArrow=none;html=1;rounded=0;exitX=0.5;exitY=1;exitDx=0;exitDy=0;entryX=1;entryY=0.5;entryDx=0;entryDy=0;" edge="1" parent="1" source="hbLjimjaeWcvPkLzuB9d-54" target="hbLjimjaeWcvPkLzuB9d-5">
          <mxGeometry relative="1" as="geometry">
            <mxPoint x="300" y="295" as="sourcePoint" />
            <mxPoint x="570" y="555" as="targetPoint" />
          </mxGeometry>
        </mxCell>
        <mxCell id="hbLjimjaeWcvPkLzuB9d-57" value="ReturnDate" style="ellipse;whiteSpace=wrap;html=1;align=center;" vertex="1" parent="1">
          <mxGeometry x="720" y="525" width="65" height="25" as="geometry" />
        </mxCell>
        <mxCell id="hbLjimjaeWcvPkLzuB9d-58" value="" style="endArrow=none;html=1;rounded=0;exitX=0.5;exitY=1;exitDx=0;exitDy=0;entryX=1;entryY=0.75;entryDx=0;entryDy=0;" edge="1" parent="1" source="hbLjimjaeWcvPkLzuB9d-57" target="hbLjimjaeWcvPkLzuB9d-5">
          <mxGeometry relative="1" as="geometry">
            <mxPoint x="285" y="310" as="sourcePoint" />
            <mxPoint x="490" y="575" as="targetPoint" />
          </mxGeometry>
        </mxCell>
        <mxCell id="hbLjimjaeWcvPkLzuB9d-59" value="Status" style="ellipse;whiteSpace=wrap;html=1;align=center;" vertex="1" parent="1">
          <mxGeometry x="745" y="565" width="60" height="20" as="geometry" />
        </mxCell>
        <mxCell id="hbLjimjaeWcvPkLzuB9d-60" value="" style="endArrow=none;html=1;rounded=0;exitX=0.5;exitY=1;exitDx=0;exitDy=0;entryX=1;entryY=1;entryDx=0;entryDy=0;" edge="1" parent="1" source="hbLjimjaeWcvPkLzuB9d-59" target="hbLjimjaeWcvPkLzuB9d-5">
          <mxGeometry relative="1" as="geometry">
            <mxPoint x="345" y="365" as="sourcePoint" />
            <mxPoint x="540" y="665" as="targetPoint" />
          </mxGeometry>
        </mxCell>
        <mxCell id="hbLjimjaeWcvPkLzuB9d-61" value="Fine Payment_Id" style="ellipse;whiteSpace=wrap;html=1;align=center;fontStyle=4;" vertex="1" parent="1">
          <mxGeometry x="750" y="825" width="109.5" height="25" as="geometry" />
        </mxCell>
        <mxCell id="hbLjimjaeWcvPkLzuB9d-63" value="" style="endArrow=none;html=1;rounded=0;exitX=0.5;exitY=0;exitDx=0;exitDy=0;entryX=1;entryY=0.75;entryDx=0;entryDy=0;" edge="1" parent="1" source="hbLjimjaeWcvPkLzuB9d-61" target="hbLjimjaeWcvPkLzuB9d-6">
          <mxGeometry relative="1" as="geometry">
            <mxPoint x="702.5" y="800" as="sourcePoint" />
            <mxPoint x="862.5" y="800" as="targetPoint" />
          </mxGeometry>
        </mxCell>
        <mxCell id="hbLjimjaeWcvPkLzuB9d-64" value="PaymentDate" style="ellipse;whiteSpace=wrap;html=1;align=center;" vertex="1" parent="1">
          <mxGeometry x="819.5" y="775" width="80" height="30" as="geometry" />
        </mxCell>
        <mxCell id="hbLjimjaeWcvPkLzuB9d-65" value="" style="endArrow=none;html=1;rounded=0;exitX=0;exitY=1;exitDx=0;exitDy=0;entryX=1;entryY=0.5;entryDx=0;entryDy=0;" edge="1" parent="1" source="hbLjimjaeWcvPkLzuB9d-64" target="hbLjimjaeWcvPkLzuB9d-6">
          <mxGeometry relative="1" as="geometry">
            <mxPoint x="702.5" y="800" as="sourcePoint" />
            <mxPoint x="862.5" y="800" as="targetPoint" />
          </mxGeometry>
        </mxCell>
        <mxCell id="hbLjimjaeWcvPkLzuB9d-66" value="PaymentDate" style="ellipse;whiteSpace=wrap;html=1;align=center;" vertex="1" parent="1">
          <mxGeometry x="799.5" y="700" width="80" height="30" as="geometry" />
        </mxCell>
        <mxCell id="hbLjimjaeWcvPkLzuB9d-67" value="" style="endArrow=none;html=1;rounded=0;exitX=0;exitY=1;exitDx=0;exitDy=0;entryX=1;entryY=0.5;entryDx=0;entryDy=0;" edge="1" parent="1" source="hbLjimjaeWcvPkLzuB9d-66" target="hbLjimjaeWcvPkLzuB9d-6">
          <mxGeometry relative="1" as="geometry">
            <mxPoint x="787.5" y="810" as="sourcePoint" />
            <mxPoint x="675.5" y="760" as="targetPoint" />
          </mxGeometry>
        </mxCell>
        <mxCell id="hbLjimjaeWcvPkLzuB9d-68" value="Amount" style="ellipse;whiteSpace=wrap;html=1;align=center;" vertex="1" parent="1">
          <mxGeometry x="704.5" y="700" width="80" height="30" as="geometry" />
        </mxCell>
        <mxCell id="hbLjimjaeWcvPkLzuB9d-69" value="" style="endArrow=none;html=1;rounded=0;exitX=0;exitY=1;exitDx=0;exitDy=0;entryX=1;entryY=0;entryDx=0;entryDy=0;" edge="1" parent="1" source="hbLjimjaeWcvPkLzuB9d-68" target="hbLjimjaeWcvPkLzuB9d-6">
          <mxGeometry relative="1" as="geometry">
            <mxPoint x="862.5" y="850" as="sourcePoint" />
            <mxPoint x="690.5" y="790" as="targetPoint" />
          </mxGeometry>
        </mxCell>
        <mxCell id="hbLjimjaeWcvPkLzuB9d-70" value="Method" style="ellipse;whiteSpace=wrap;html=1;align=center;" vertex="1" parent="1">
          <mxGeometry x="749.5" y="745" width="80" height="30" as="geometry" />
        </mxCell>
        <mxCell id="hbLjimjaeWcvPkLzuB9d-71" value="" style="endArrow=none;html=1;rounded=0;exitX=0;exitY=1;exitDx=0;exitDy=0;entryX=1;entryY=0.25;entryDx=0;entryDy=0;" edge="1" parent="1" source="hbLjimjaeWcvPkLzuB9d-70" target="hbLjimjaeWcvPkLzuB9d-6">
          <mxGeometry relative="1" as="geometry">
            <mxPoint x="874.5" y="890" as="sourcePoint" />
            <mxPoint x="672.5" y="770" as="targetPoint" />
          </mxGeometry>
        </mxCell>
        <mxCell id="hbLjimjaeWcvPkLzuB9d-72" value="Staff_ID" style="ellipse;whiteSpace=wrap;html=1;align=center;fontStyle=4;" vertex="1" parent="1">
          <mxGeometry x="42.5" y="580" width="77.5" height="30" as="geometry" />
        </mxCell>
        <mxCell id="hbLjimjaeWcvPkLzuB9d-73" value="" style="endArrow=none;html=1;rounded=0;exitX=0.5;exitY=1;exitDx=0;exitDy=0;entryX=0;entryY=0.5;entryDx=0;entryDy=0;" edge="1" parent="1" source="hbLjimjaeWcvPkLzuB9d-72" target="hbLjimjaeWcvPkLzuB9d-7">
          <mxGeometry relative="1" as="geometry">
            <mxPoint x="331.25" y="485" as="sourcePoint" />
            <mxPoint x="491.25" y="485" as="targetPoint" />
          </mxGeometry>
        </mxCell>
        <mxCell id="hbLjimjaeWcvPkLzuB9d-75" value="FullName" style="ellipse;whiteSpace=wrap;html=1;align=center;" vertex="1" parent="1">
          <mxGeometry x="55" y="525" width="80" height="20" as="geometry" />
        </mxCell>
        <mxCell id="hbLjimjaeWcvPkLzuB9d-76" value="" style="endArrow=none;html=1;rounded=0;exitX=0.5;exitY=1;exitDx=0;exitDy=0;entryX=0;entryY=0.25;entryDx=0;entryDy=0;" edge="1" parent="1" source="hbLjimjaeWcvPkLzuB9d-75" target="hbLjimjaeWcvPkLzuB9d-7">
          <mxGeometry relative="1" as="geometry">
            <mxPoint x="348.75" y="535" as="sourcePoint" />
            <mxPoint x="203.75" y="605" as="targetPoint" />
          </mxGeometry>
        </mxCell>
        <mxCell id="hbLjimjaeWcvPkLzuB9d-78" value="Position" style="ellipse;whiteSpace=wrap;html=1;align=center;" vertex="1" parent="1">
          <mxGeometry x="42.5" y="625" width="60" height="20" as="geometry" />
        </mxCell>
        <mxCell id="hbLjimjaeWcvPkLzuB9d-79" value="" style="endArrow=none;html=1;rounded=0;exitX=0.5;exitY=1;exitDx=0;exitDy=0;entryX=0;entryY=1;entryDx=0;entryDy=0;" edge="1" parent="1" source="hbLjimjaeWcvPkLzuB9d-78" target="hbLjimjaeWcvPkLzuB9d-7">
          <mxGeometry relative="1" as="geometry">
            <mxPoint x="408.75" y="535" as="sourcePoint" />
            <mxPoint x="279.25" y="605" as="targetPoint" />
          </mxGeometry>
        </mxCell>
        <mxCell id="hbLjimjaeWcvPkLzuB9d-82" value="" style="endArrow=none;html=1;rounded=0;exitX=0.5;exitY=1;exitDx=0;exitDy=0;entryX=0.25;entryY=0;entryDx=0;entryDy=0;" edge="1" parent="1" source="hbLjimjaeWcvPkLzuB9d-83" target="hbLjimjaeWcvPkLzuB9d-7">
          <mxGeometry relative="1" as="geometry">
            <mxPoint x="159.45500000000004" y="520.56" as="sourcePoint" />
            <mxPoint x="147.75" y="571.1199999999999" as="targetPoint" />
          </mxGeometry>
        </mxCell>
        <mxCell id="hbLjimjaeWcvPkLzuB9d-83" value="ContactNumber" style="ellipse;shape=doubleEllipse;margin=3;whiteSpace=wrap;html=1;align=center;" vertex="1" parent="1">
          <mxGeometry x="112.5" y="485" width="85" height="35" as="geometry" />
        </mxCell>
        <mxCell id="hbLjimjaeWcvPkLzuB9d-84" value="Review_Id" style="ellipse;whiteSpace=wrap;html=1;align=center;fontStyle=4;" vertex="1" parent="1">
          <mxGeometry x="970" y="680" width="70" height="30" as="geometry" />
        </mxCell>
        <mxCell id="hbLjimjaeWcvPkLzuB9d-85" value="" style="endArrow=none;html=1;rounded=0;exitX=0.5;exitY=1;exitDx=0;exitDy=0;entryX=0;entryY=0;entryDx=0;entryDy=0;" edge="1" parent="1" source="hbLjimjaeWcvPkLzuB9d-84" target="hbLjimjaeWcvPkLzuB9d-8">
          <mxGeometry relative="1" as="geometry">
            <mxPoint x="897.5" y="505" as="sourcePoint" />
            <mxPoint x="1057.5" y="505" as="targetPoint" />
          </mxGeometry>
        </mxCell>
        <mxCell id="hbLjimjaeWcvPkLzuB9d-86" value="Rating" style="ellipse;whiteSpace=wrap;html=1;align=center;" vertex="1" parent="1">
          <mxGeometry x="1010" y="830" width="65" height="20" as="geometry" />
        </mxCell>
        <mxCell id="hbLjimjaeWcvPkLzuB9d-87" value="" style="endArrow=none;html=1;rounded=0;exitX=0.5;exitY=0;exitDx=0;exitDy=0;entryX=0.25;entryY=1;entryDx=0;entryDy=0;" edge="1" parent="1" source="hbLjimjaeWcvPkLzuB9d-86" target="hbLjimjaeWcvPkLzuB9d-8">
          <mxGeometry relative="1" as="geometry">
            <mxPoint x="897.5" y="505" as="sourcePoint" />
            <mxPoint x="1057.5" y="505" as="targetPoint" />
          </mxGeometry>
        </mxCell>
        <mxCell id="hbLjimjaeWcvPkLzuB9d-88" value="Comments" style="ellipse;whiteSpace=wrap;html=1;align=center;" vertex="1" parent="1">
          <mxGeometry x="940" y="820" width="65" height="20" as="geometry" />
        </mxCell>
        <mxCell id="hbLjimjaeWcvPkLzuB9d-89" value="" style="endArrow=none;html=1;rounded=0;exitX=0.651;exitY=0.116;exitDx=0;exitDy=0;entryX=0;entryY=1;entryDx=0;entryDy=0;exitPerimeter=0;" edge="1" parent="1" source="hbLjimjaeWcvPkLzuB9d-88" target="hbLjimjaeWcvPkLzuB9d-8">
          <mxGeometry relative="1" as="geometry">
            <mxPoint x="947.5" y="485" as="sourcePoint" />
            <mxPoint x="1217.5" y="760" as="targetPoint" />
          </mxGeometry>
        </mxCell>
        <mxCell id="hbLjimjaeWcvPkLzuB9d-90" value="ReviewDate" style="ellipse;whiteSpace=wrap;html=1;align=center;" vertex="1" parent="1">
          <mxGeometry x="1085" y="830" width="70" height="20" as="geometry" />
        </mxCell>
        <mxCell id="hbLjimjaeWcvPkLzuB9d-91" value="" style="endArrow=none;html=1;rounded=0;entryX=0.5;entryY=1;entryDx=0;entryDy=0;" edge="1" parent="1" source="hbLjimjaeWcvPkLzuB9d-90" target="hbLjimjaeWcvPkLzuB9d-8">
          <mxGeometry relative="1" as="geometry">
            <mxPoint x="957.5" y="495" as="sourcePoint" />
            <mxPoint x="1202.5" y="790" as="targetPoint" />
          </mxGeometry>
        </mxCell>
        <mxCell id="hbLjimjaeWcvPkLzuB9d-97" value="" style="shape=link;html=1;rounded=0;exitX=0.9;exitY=0.489;exitDx=0;exitDy=0;entryX=0;entryY=0.5;entryDx=0;entryDy=0;exitPerimeter=0;" edge="1" parent="1" source="hbLjimjaeWcvPkLzuB9d-119" target="hbLjimjaeWcvPkLzuB9d-3">
          <mxGeometry relative="1" as="geometry">
            <mxPoint x="390" y="140" as="sourcePoint" />
            <mxPoint x="470" y="400" as="targetPoint" />
          </mxGeometry>
        </mxCell>
        <mxCell id="hbLjimjaeWcvPkLzuB9d-100" value="M" style="text;html=1;align=center;verticalAlign=middle;resizable=0;points=[];autosize=1;strokeColor=none;fillColor=none;" vertex="1" parent="1">
          <mxGeometry x="515" y="160" width="30" height="30" as="geometry" />
        </mxCell>
        <mxCell id="hbLjimjaeWcvPkLzuB9d-102" value="Book" style="shape=ext;margin=3;double=1;whiteSpace=wrap;html=1;align=center;" vertex="1" parent="1">
          <mxGeometry x="565" y="120" width="100" height="40" as="geometry" />
        </mxCell>
        <mxCell id="hbLjimjaeWcvPkLzuB9d-104" value="have" style="shape=rhombus;perimeter=rhombusPerimeter;whiteSpace=wrap;html=1;align=center;" vertex="1" parent="1">
          <mxGeometry x="197.5" y="472.5" width="81.25" height="47.5" as="geometry" />
        </mxCell>
        <mxCell id="hbLjimjaeWcvPkLzuB9d-105" value="" style="endArrow=none;html=1;rounded=0;exitX=0.5;exitY=1;exitDx=0;exitDy=0;entryX=0.5;entryY=0;entryDx=0;entryDy=0;" edge="1" parent="1" source="hbLjimjaeWcvPkLzuB9d-2" target="hbLjimjaeWcvPkLzuB9d-104">
          <mxGeometry relative="1" as="geometry">
            <mxPoint x="315" y="575" as="sourcePoint" />
            <mxPoint x="475" y="575" as="targetPoint" />
          </mxGeometry>
        </mxCell>
        <mxCell id="hbLjimjaeWcvPkLzuB9d-108" value="1" style="edgeLabel;html=1;align=center;verticalAlign=middle;resizable=0;points=[];" vertex="1" connectable="0" parent="hbLjimjaeWcvPkLzuB9d-105">
          <mxGeometry x="-0.0331" y="2" relative="1" as="geometry">
            <mxPoint as="offset" />
          </mxGeometry>
        </mxCell>
        <mxCell id="hbLjimjaeWcvPkLzuB9d-106" value="" style="shape=link;html=1;rounded=0;exitX=0.5;exitY=1;exitDx=0;exitDy=0;entryX=0.5;entryY=0;entryDx=0;entryDy=0;" edge="1" parent="1" source="hbLjimjaeWcvPkLzuB9d-104" target="hbLjimjaeWcvPkLzuB9d-7">
          <mxGeometry relative="1" as="geometry">
            <mxPoint x="315" y="575" as="sourcePoint" />
            <mxPoint x="475" y="575" as="targetPoint" />
            <Array as="points" />
          </mxGeometry>
        </mxCell>
        <mxCell id="hbLjimjaeWcvPkLzuB9d-109" value="M" style="edgeLabel;html=1;align=center;verticalAlign=middle;resizable=0;points=[];" vertex="1" connectable="0" parent="hbLjimjaeWcvPkLzuB9d-106">
          <mxGeometry x="-0.0533" y="2" relative="1" as="geometry">
            <mxPoint as="offset" />
          </mxGeometry>
        </mxCell>
        <mxCell id="hbLjimjaeWcvPkLzuB9d-110" value="has" style="shape=rhombus;perimeter=rhombusPerimeter;whiteSpace=wrap;html=1;align=center;" vertex="1" parent="1">
          <mxGeometry x="920" y="560" width="105" height="50" as="geometry" />
        </mxCell>
        <mxCell id="hbLjimjaeWcvPkLzuB9d-111" value="" style="endArrow=none;html=1;rounded=0;exitX=1;exitY=0.5;exitDx=0;exitDy=0;" edge="1" parent="1" source="hbLjimjaeWcvPkLzuB9d-110">
          <mxGeometry relative="1" as="geometry">
            <mxPoint x="930" y="290" as="sourcePoint" />
            <mxPoint x="1025" y="290" as="targetPoint" />
          </mxGeometry>
        </mxCell>
        <mxCell id="hbLjimjaeWcvPkLzuB9d-114" value="1" style="edgeLabel;html=1;align=center;verticalAlign=middle;resizable=0;points=[];" vertex="1" connectable="0" parent="hbLjimjaeWcvPkLzuB9d-111">
          <mxGeometry x="0.0684" y="3" relative="1" as="geometry">
            <mxPoint as="offset" />
          </mxGeometry>
        </mxCell>
        <mxCell id="hbLjimjaeWcvPkLzuB9d-116" value="" style="endArrow=none;html=1;rounded=0;entryX=1;entryY=0.5;entryDx=0;entryDy=0;exitX=0;exitY=0.5;exitDx=0;exitDy=0;" edge="1" parent="1" source="hbLjimjaeWcvPkLzuB9d-110" target="hbLjimjaeWcvPkLzuB9d-5">
          <mxGeometry relative="1" as="geometry">
            <mxPoint x="940" y="580" as="sourcePoint" />
            <mxPoint x="530" y="410" as="targetPoint" />
          </mxGeometry>
        </mxCell>
        <mxCell id="hbLjimjaeWcvPkLzuB9d-117" value="M" style="edgeLabel;html=1;align=center;verticalAlign=middle;resizable=0;points=[];" vertex="1" connectable="0" parent="hbLjimjaeWcvPkLzuB9d-116">
          <mxGeometry x="-0.3247" y="-3" relative="1" as="geometry">
            <mxPoint as="offset" />
          </mxGeometry>
        </mxCell>
        <mxCell id="hbLjimjaeWcvPkLzuB9d-119" value="Mange" style="shape=rhombus;double=1;perimeter=rhombusPerimeter;whiteSpace=wrap;html=1;align=center;" vertex="1" parent="1">
          <mxGeometry x="360" y="285" width="100" height="50" as="geometry" />
        </mxCell>
        <mxCell id="hbLjimjaeWcvPkLzuB9d-121" value="" style="shape=link;html=1;rounded=0;entryX=0;entryY=0.5;entryDx=0;entryDy=0;exitX=0.75;exitY=0;exitDx=0;exitDy=0;" edge="1" parent="1" source="hbLjimjaeWcvPkLzuB9d-2" target="hbLjimjaeWcvPkLzuB9d-119">
          <mxGeometry relative="1" as="geometry">
            <mxPoint x="290" y="415" as="sourcePoint" />
            <mxPoint x="452.5" y="414.5" as="targetPoint" />
          </mxGeometry>
        </mxCell>
        <mxCell id="hbLjimjaeWcvPkLzuB9d-122" value="1" style="resizable=0;html=1;whiteSpace=wrap;align=right;verticalAlign=bottom;" connectable="0" vertex="1" parent="hbLjimjaeWcvPkLzuB9d-121">
          <mxGeometry x="1" relative="1" as="geometry" />
        </mxCell>
        <mxCell id="hbLjimjaeWcvPkLzuB9d-123" value="loaned" style="shape=rhombus;perimeter=rhombusPerimeter;whiteSpace=wrap;html=1;align=center;" vertex="1" parent="1">
          <mxGeometry x="555" y="260" width="120" height="50" as="geometry" />
        </mxCell>
        <mxCell id="hbLjimjaeWcvPkLzuB9d-127" value="" style="endArrow=none;html=1;rounded=0;exitX=0.5;exitY=1;exitDx=0;exitDy=0;entryX=0.5;entryY=0;entryDx=0;entryDy=0;" edge="1" parent="1" source="hbLjimjaeWcvPkLzuB9d-102" target="hbLjimjaeWcvPkLzuB9d-123">
          <mxGeometry relative="1" as="geometry">
            <mxPoint x="390" y="370" as="sourcePoint" />
            <mxPoint x="550" y="370" as="targetPoint" />
          </mxGeometry>
        </mxCell>
        <mxCell id="hbLjimjaeWcvPkLzuB9d-128" value="1" style="resizable=0;html=1;whiteSpace=wrap;align=right;verticalAlign=bottom;" connectable="0" vertex="1" parent="hbLjimjaeWcvPkLzuB9d-127">
          <mxGeometry x="1" relative="1" as="geometry" />
        </mxCell>
        <mxCell id="hbLjimjaeWcvPkLzuB9d-129" value="" style="endArrow=none;html=1;rounded=0;exitX=0.5;exitY=1;exitDx=0;exitDy=0;entryX=0.5;entryY=0;entryDx=0;entryDy=0;" edge="1" parent="1" source="hbLjimjaeWcvPkLzuB9d-123" target="hbLjimjaeWcvPkLzuB9d-5">
          <mxGeometry relative="1" as="geometry">
            <mxPoint x="390" y="370" as="sourcePoint" />
            <mxPoint x="550" y="370" as="targetPoint" />
          </mxGeometry>
        </mxCell>
        <mxCell id="hbLjimjaeWcvPkLzuB9d-131" value="M" style="edgeLabel;html=1;align=center;verticalAlign=middle;resizable=0;points=[];" vertex="1" connectable="0" parent="hbLjimjaeWcvPkLzuB9d-129">
          <mxGeometry x="-0.1067" y="1" relative="1" as="geometry">
            <mxPoint as="offset" />
          </mxGeometry>
        </mxCell>
        <mxCell id="hbLjimjaeWcvPkLzuB9d-133" value="have" style="shape=rhombus;perimeter=rhombusPerimeter;whiteSpace=wrap;html=1;align=center;" vertex="1" parent="1">
          <mxGeometry x="572.5" y="650" width="85" height="40" as="geometry" />
        </mxCell>
        <mxCell id="hbLjimjaeWcvPkLzuB9d-134" value="" style="endArrow=none;html=1;rounded=0;exitX=0.5;exitY=0;exitDx=0;exitDy=0;entryX=0.5;entryY=1;entryDx=0;entryDy=0;" edge="1" parent="1" source="hbLjimjaeWcvPkLzuB9d-133" target="hbLjimjaeWcvPkLzuB9d-5">
          <mxGeometry relative="1" as="geometry">
            <mxPoint x="510" y="590" as="sourcePoint" />
            <mxPoint x="670" y="590" as="targetPoint" />
          </mxGeometry>
        </mxCell>
        <mxCell id="hbLjimjaeWcvPkLzuB9d-136" value="1" style="edgeLabel;html=1;align=center;verticalAlign=middle;resizable=0;points=[];" vertex="1" connectable="0" parent="hbLjimjaeWcvPkLzuB9d-134">
          <mxGeometry x="0.2126" y="1" relative="1" as="geometry">
            <mxPoint as="offset" />
          </mxGeometry>
        </mxCell>
        <mxCell id="hbLjimjaeWcvPkLzuB9d-137" value="" style="endArrow=none;html=1;rounded=0;exitX=0.5;exitY=0;exitDx=0;exitDy=0;entryX=0.5;entryY=1;entryDx=0;entryDy=0;" edge="1" parent="1" source="hbLjimjaeWcvPkLzuB9d-6" target="hbLjimjaeWcvPkLzuB9d-133">
          <mxGeometry relative="1" as="geometry">
            <mxPoint x="510" y="590" as="sourcePoint" />
            <mxPoint x="670" y="590" as="targetPoint" />
          </mxGeometry>
        </mxCell>
        <mxCell id="hbLjimjaeWcvPkLzuB9d-138" value="M" style="edgeLabel;html=1;align=center;verticalAlign=middle;resizable=0;points=[];" vertex="1" connectable="0" parent="hbLjimjaeWcvPkLzuB9d-137">
          <mxGeometry x="0.1056" y="1" relative="1" as="geometry">
            <mxPoint as="offset" />
          </mxGeometry>
        </mxCell>
        <mxCell id="hbLjimjaeWcvPkLzuB9d-141" value="Write" style="shape=rhombus;perimeter=rhombusPerimeter;whiteSpace=wrap;html=1;align=center;" vertex="1" parent="1">
          <mxGeometry x="1015.6199999999999" y="600" width="88.75" height="50" as="geometry" />
        </mxCell>
        <mxCell id="hbLjimjaeWcvPkLzuB9d-142" value="" style="endArrow=none;html=1;rounded=0;exitX=0.386;exitY=0.942;exitDx=0;exitDy=0;exitPerimeter=0;entryX=0.5;entryY=0;entryDx=0;entryDy=0;" edge="1" parent="1" source="hbLjimjaeWcvPkLzuB9d-4" target="hbLjimjaeWcvPkLzuB9d-141">
          <mxGeometry relative="1" as="geometry">
            <mxPoint x="1337.5" y="570" as="sourcePoint" />
            <mxPoint x="1497.5" y="570" as="targetPoint" />
          </mxGeometry>
        </mxCell>
        <mxCell id="hbLjimjaeWcvPkLzuB9d-146" value="1" style="edgeLabel;html=1;align=center;verticalAlign=middle;resizable=0;points=[];" vertex="1" connectable="0" parent="hbLjimjaeWcvPkLzuB9d-142">
          <mxGeometry x="-0.1004" y="2" relative="1" as="geometry">
            <mxPoint as="offset" />
          </mxGeometry>
        </mxCell>
        <mxCell id="hbLjimjaeWcvPkLzuB9d-143" value="" style="endArrow=none;html=1;rounded=0;exitX=0.5;exitY=1;exitDx=0;exitDy=0;entryX=0.5;entryY=0;entryDx=0;entryDy=0;" edge="1" parent="1" source="hbLjimjaeWcvPkLzuB9d-141" target="hbLjimjaeWcvPkLzuB9d-8">
          <mxGeometry relative="1" as="geometry">
            <mxPoint x="1322.5" y="799.41" as="sourcePoint" />
            <mxPoint x="1482.5" y="799.41" as="targetPoint" />
          </mxGeometry>
        </mxCell>
        <mxCell id="hbLjimjaeWcvPkLzuB9d-145" value="M" style="edgeLabel;html=1;align=center;verticalAlign=middle;resizable=0;points=[];" vertex="1" connectable="0" parent="hbLjimjaeWcvPkLzuB9d-143">
          <mxGeometry x="-0.1749" y="-2" relative="1" as="geometry">
            <mxPoint as="offset" />
          </mxGeometry>
        </mxCell>
        <mxCell id="hbLjimjaeWcvPkLzuB9d-147" value="recived" style="shape=rhombus;perimeter=rhombusPerimeter;whiteSpace=wrap;html=1;align=center;" vertex="1" parent="1">
          <mxGeometry x="785" y="370" width="75" height="40" as="geometry" />
        </mxCell>
        <mxCell id="hbLjimjaeWcvPkLzuB9d-148" value="" style="endArrow=none;html=1;rounded=0;exitX=0.75;exitY=1;exitDx=0;exitDy=0;entryX=0.5;entryY=0;entryDx=0;entryDy=0;" edge="1" parent="1" source="hbLjimjaeWcvPkLzuB9d-102" target="hbLjimjaeWcvPkLzuB9d-147">
          <mxGeometry relative="1" as="geometry">
            <mxPoint x="1632.5" y="140" as="sourcePoint" />
            <mxPoint x="1497.5" y="570" as="targetPoint" />
          </mxGeometry>
        </mxCell>
        <mxCell id="hbLjimjaeWcvPkLzuB9d-149" value="1" style="edgeLabel;html=1;align=center;verticalAlign=middle;resizable=0;points=[];" vertex="1" connectable="0" parent="hbLjimjaeWcvPkLzuB9d-148">
          <mxGeometry x="-0.1734" y="-1" relative="1" as="geometry">
            <mxPoint as="offset" />
          </mxGeometry>
        </mxCell>
        <mxCell id="hbLjimjaeWcvPkLzuB9d-150" value="" style="endArrow=none;html=1;rounded=0;exitX=0;exitY=0.5;exitDx=0;exitDy=0;entryX=0.5;entryY=1;entryDx=0;entryDy=0;" edge="1" parent="1" source="hbLjimjaeWcvPkLzuB9d-8" target="hbLjimjaeWcvPkLzuB9d-147">
          <mxGeometry relative="1" as="geometry">
            <mxPoint x="1337.5" y="570" as="sourcePoint" />
            <mxPoint x="1497.5" y="570" as="targetPoint" />
          </mxGeometry>
        </mxCell>
        <mxCell id="hbLjimjaeWcvPkLzuB9d-151" value="M" style="edgeLabel;html=1;align=center;verticalAlign=middle;resizable=0;points=[];" vertex="1" connectable="0" parent="hbLjimjaeWcvPkLzuB9d-150">
          <mxGeometry x="0.1957" y="-2" relative="1" as="geometry">
            <mxPoint as="offset" />
          </mxGeometry>
        </mxCell>
        <mxCell id="hbLjimjaeWcvPkLzuB9d-152" value="borrow" style="shape=rhombus;perimeter=rhombusPerimeter;whiteSpace=wrap;html=1;align=center;" vertex="1" parent="1">
          <mxGeometry x="829.5" y="120" width="80" height="30" as="geometry" />
        </mxCell>
        <mxCell id="hbLjimjaeWcvPkLzuB9d-156" value="" style="endArrow=none;html=1;rounded=0;entryX=1;entryY=0.5;entryDx=0;entryDy=0;exitX=0;exitY=0;exitDx=0;exitDy=0;" edge="1" parent="1" source="hbLjimjaeWcvPkLzuB9d-4" target="hbLjimjaeWcvPkLzuB9d-152">
          <mxGeometry relative="1" as="geometry">
            <mxPoint x="1115" y="540" as="sourcePoint" />
            <mxPoint x="1477.5" y="560" as="targetPoint" />
          </mxGeometry>
        </mxCell>
        <mxCell id="hbLjimjaeWcvPkLzuB9d-157" value="1" style="edgeLabel;html=1;align=center;verticalAlign=middle;resizable=0;points=[];" vertex="1" connectable="0" parent="hbLjimjaeWcvPkLzuB9d-156">
          <mxGeometry x="0.2391" y="4" relative="1" as="geometry">
            <mxPoint as="offset" />
          </mxGeometry>
        </mxCell>
        <mxCell id="hbLjimjaeWcvPkLzuB9d-158" value="" style="endArrow=none;html=1;rounded=0;exitX=0;exitY=0.5;exitDx=0;exitDy=0;entryX=1;entryY=0.5;entryDx=0;entryDy=0;" edge="1" parent="1" source="hbLjimjaeWcvPkLzuB9d-152" target="hbLjimjaeWcvPkLzuB9d-102">
          <mxGeometry relative="1" as="geometry">
            <mxPoint x="1317.5" y="560" as="sourcePoint" />
            <mxPoint x="1632.5" y="130" as="targetPoint" />
          </mxGeometry>
        </mxCell>
        <mxCell id="hbLjimjaeWcvPkLzuB9d-159" value="M" style="edgeLabel;html=1;align=center;verticalAlign=middle;resizable=0;points=[];" vertex="1" connectable="0" parent="hbLjimjaeWcvPkLzuB9d-158">
          <mxGeometry x="-0.6878" y="-1" relative="1" as="geometry">
            <mxPoint y="-1" as="offset" />
          </mxGeometry>
        </mxCell>
        <mxCell id="hbLjimjaeWcvPkLzuB9d-160" value="belongs" style="shape=rhombus;perimeter=rhombusPerimeter;whiteSpace=wrap;html=1;align=center;" vertex="1" parent="1">
          <mxGeometry x="459.77" y="420" width="70" height="30" as="geometry" />
        </mxCell>
        <mxCell id="hbLjimjaeWcvPkLzuB9d-163" value="" style="endArrow=none;html=1;rounded=0;exitX=1;exitY=1;exitDx=0;exitDy=0;entryX=0;entryY=0.5;entryDx=0;entryDy=0;" edge="1" parent="1" source="hbLjimjaeWcvPkLzuB9d-2" target="hbLjimjaeWcvPkLzuB9d-160">
          <mxGeometry relative="1" as="geometry">
            <mxPoint x="345" y="855" as="sourcePoint" />
            <mxPoint x="505" y="855" as="targetPoint" />
          </mxGeometry>
        </mxCell>
        <mxCell id="hbLjimjaeWcvPkLzuB9d-164" value="1" style="edgeLabel;html=1;align=center;verticalAlign=middle;resizable=0;points=[];" vertex="1" connectable="0" parent="hbLjimjaeWcvPkLzuB9d-163">
          <mxGeometry x="-0.2537" y="-1" relative="1" as="geometry">
            <mxPoint as="offset" />
          </mxGeometry>
        </mxCell>
        <mxCell id="hbLjimjaeWcvPkLzuB9d-165" value="" style="endArrow=none;html=1;rounded=0;exitX=0;exitY=0.5;exitDx=0;exitDy=0;entryX=0.5;entryY=0;entryDx=0;entryDy=0;" edge="1" parent="1" source="hbLjimjaeWcvPkLzuB9d-102" target="hbLjimjaeWcvPkLzuB9d-160">
          <mxGeometry relative="1" as="geometry">
            <mxPoint x="205" y="170" as="sourcePoint" />
            <mxPoint x="320" y="223" as="targetPoint" />
          </mxGeometry>
        </mxCell>
        <mxCell id="hbLjimjaeWcvPkLzuB9d-166" value="1" style="edgeLabel;html=1;align=center;verticalAlign=middle;resizable=0;points=[];" vertex="1" connectable="0" parent="hbLjimjaeWcvPkLzuB9d-165">
          <mxGeometry x="-0.2537" y="-1" relative="1" as="geometry">
            <mxPoint as="offset" />
          </mxGeometry>
        </mxCell>
        <mxCell id="hbLjimjaeWcvPkLzuB9d-167" value="link" style="shape=rhombus;perimeter=rhombusPerimeter;whiteSpace=wrap;html=1;align=center;" vertex="1" parent="1">
          <mxGeometry x="1025" y="165" width="90" height="35" as="geometry" />
        </mxCell>
        <mxCell id="hbLjimjaeWcvPkLzuB9d-169" value="" style="endArrow=none;html=1;rounded=0;exitX=1;exitY=1;exitDx=0;exitDy=0;entryX=0.5;entryY=0;entryDx=0;entryDy=0;" edge="1" parent="1" source="hbLjimjaeWcvPkLzuB9d-102" target="hbLjimjaeWcvPkLzuB9d-167">
          <mxGeometry relative="1" as="geometry">
            <mxPoint x="1657.5" y="140" as="sourcePoint" />
            <mxPoint x="1477.5" y="560" as="targetPoint" />
          </mxGeometry>
        </mxCell>
        <mxCell id="hbLjimjaeWcvPkLzuB9d-170" value="1" style="edgeLabel;html=1;align=center;verticalAlign=middle;resizable=0;points=[];" vertex="1" connectable="0" parent="hbLjimjaeWcvPkLzuB9d-169">
          <mxGeometry x="0.5691" y="-1" relative="1" as="geometry">
            <mxPoint as="offset" />
          </mxGeometry>
        </mxCell>
        <mxCell id="hbLjimjaeWcvPkLzuB9d-171" value="1" style="endArrow=none;html=1;rounded=0;exitX=0.5;exitY=0;exitDx=0;exitDy=0;entryX=0.5;entryY=1;entryDx=0;entryDy=0;" edge="1" parent="1" source="hbLjimjaeWcvPkLzuB9d-4" target="hbLjimjaeWcvPkLzuB9d-167">
          <mxGeometry relative="1" as="geometry">
            <mxPoint x="1317.5" y="560" as="sourcePoint" />
            <mxPoint x="905" y="460" as="targetPoint" />
          </mxGeometry>
        </mxCell>
        <mxCell id="hbLjimjaeWcvPkLzuB9d-176" value="F_Name" style="ellipse;whiteSpace=wrap;html=1;align=center;" vertex="1" parent="1">
          <mxGeometry x="1322.5" y="190" width="55" height="20" as="geometry" />
        </mxCell>
        <mxCell id="hbLjimjaeWcvPkLzuB9d-177" value="L_Name" style="ellipse;whiteSpace=wrap;html=1;align=center;" vertex="1" parent="1">
          <mxGeometry x="1340" y="230" width="60" height="20" as="geometry" />
        </mxCell>
        <mxCell id="hbLjimjaeWcvPkLzuB9d-178" value="" style="endArrow=none;html=1;rounded=0;exitX=0.5;exitY=1;exitDx=0;exitDy=0;entryX=1;entryY=0;entryDx=0;entryDy=0;" edge="1" parent="1" source="hbLjimjaeWcvPkLzuB9d-176" target="hbLjimjaeWcvPkLzuB9d-37">
          <mxGeometry relative="1" as="geometry">
            <mxPoint x="670" y="360" as="sourcePoint" />
            <mxPoint x="830" y="360" as="targetPoint" />
          </mxGeometry>
        </mxCell>
        <mxCell id="hbLjimjaeWcvPkLzuB9d-179" value="" style="endArrow=none;html=1;rounded=0;exitX=0;exitY=1;exitDx=0;exitDy=0;entryX=1;entryY=0;entryDx=0;entryDy=0;" edge="1" parent="1" source="hbLjimjaeWcvPkLzuB9d-177">
          <mxGeometry relative="1" as="geometry">
            <mxPoint x="1360" y="220" as="sourcePoint" />
            <mxPoint x="1304" y="228" as="targetPoint" />
          </mxGeometry>
        </mxCell>
        <mxCell id="hbLjimjaeWcvPkLzuB9d-182" value="" style="endArrow=none;html=1;rounded=0;" edge="1" parent="1">
          <mxGeometry relative="1" as="geometry">
            <mxPoint y="920" as="sourcePoint" />
            <mxPoint x="1700" y="920" as="targetPoint" />
          </mxGeometry>
        </mxCell>
        <mxCell id="hbLjimjaeWcvPkLzuB9d-184" value="Name" style="whiteSpace=wrap;html=1;align=center;" vertex="1" parent="1">
          <mxGeometry x="504.77" y="1040" width="100" height="40" as="geometry" />
        </mxCell>
        <mxCell id="hbLjimjaeWcvPkLzuB9d-255" style="edgeStyle=orthogonalEdgeStyle;rounded=0;orthogonalLoop=1;jettySize=auto;html=1;exitX=0.5;exitY=1;exitDx=0;exitDy=0;entryX=0.5;entryY=0;entryDx=0;entryDy=0;" edge="1" parent="1" source="hbLjimjaeWcvPkLzuB9d-185" target="hbLjimjaeWcvPkLzuB9d-256">
          <mxGeometry relative="1" as="geometry">
            <mxPoint x="834.77" y="1180" as="targetPoint" />
            <Array as="points">
              <mxPoint x="344.77" y="1080" />
              <mxPoint x="344.77" y="1180" />
              <mxPoint x="854.77" y="1180" />
            </Array>
          </mxGeometry>
        </mxCell>
        <mxCell id="hbLjimjaeWcvPkLzuB9d-258" value="Have" style="edgeLabel;html=1;align=center;verticalAlign=middle;resizable=0;points=[];" vertex="1" connectable="0" parent="hbLjimjaeWcvPkLzuB9d-255">
          <mxGeometry x="-0.5287" y="-5" relative="1" as="geometry">
            <mxPoint as="offset" />
          </mxGeometry>
        </mxCell>
        <mxCell id="hbLjimjaeWcvPkLzuB9d-185" value="&lt;span style=&quot;text-decoration-line: underline;&quot;&gt;Library_ID&lt;/span&gt;" style="whiteSpace=wrap;html=1;align=center;" vertex="1" parent="1">
          <mxGeometry x="404.77" y="1040" width="100" height="40" as="geometry" />
        </mxCell>
        <mxCell id="hbLjimjaeWcvPkLzuB9d-186" value="Location" style="whiteSpace=wrap;html=1;align=center;" vertex="1" parent="1">
          <mxGeometry x="604.77" y="1040" width="100" height="40" as="geometry" />
        </mxCell>
        <mxCell id="hbLjimjaeWcvPkLzuB9d-189" value="EstablishedYear" style="whiteSpace=wrap;html=1;align=center;" vertex="1" parent="1">
          <mxGeometry x="704.77" y="1040" width="100" height="40" as="geometry" />
        </mxCell>
        <mxCell id="hbLjimjaeWcvPkLzuB9d-191" value="&lt;span style=&quot;text-wrap-mode: wrap;&quot;&gt;&lt;b&gt;Library&lt;/b&gt;&lt;/span&gt;" style="text;html=1;align=center;verticalAlign=middle;resizable=0;points=[];autosize=1;strokeColor=none;fillColor=none;" vertex="1" parent="1">
          <mxGeometry x="399.77" y="1010" width="60" height="30" as="geometry" />
        </mxCell>
        <mxCell id="hbLjimjaeWcvPkLzuB9d-193" value="&lt;u&gt;ContactNumber&lt;/u&gt;" style="whiteSpace=wrap;html=1;align=center;" vertex="1" parent="1">
          <mxGeometry x="504.77" y="1120" width="100" height="40" as="geometry" />
        </mxCell>
        <mxCell id="hbLjimjaeWcvPkLzuB9d-194" value="&lt;span style=&quot;text-decoration-line: underline;&quot;&gt;Library_ID&lt;/span&gt;" style="whiteSpace=wrap;html=1;align=center;" vertex="1" parent="1">
          <mxGeometry x="404.77" y="1120" width="100" height="40" as="geometry" />
        </mxCell>
        <mxCell id="hbLjimjaeWcvPkLzuB9d-195" value="&lt;b&gt;&lt;span style=&quot;text-wrap-mode: wrap;&quot;&gt;Library_&lt;/span&gt;&lt;span style=&quot;text-wrap-mode: wrap;&quot;&gt;ContactNumber&lt;/span&gt;&lt;/b&gt;" style="text;html=1;align=center;verticalAlign=middle;resizable=0;points=[];autosize=1;strokeColor=none;fillColor=none;" vertex="1" parent="1">
          <mxGeometry x="404.77" y="1090" width="160" height="30" as="geometry" />
        </mxCell>
        <mxCell id="hbLjimjaeWcvPkLzuB9d-196" value="Position" style="whiteSpace=wrap;html=1;align=center;" vertex="1" parent="1">
          <mxGeometry x="504.77" y="1200" width="100" height="40" as="geometry" />
        </mxCell>
        <mxCell id="hbLjimjaeWcvPkLzuB9d-197" value="&lt;span style=&quot;text-decoration-line: underline;&quot;&gt;Staff_ID&lt;/span&gt;" style="whiteSpace=wrap;html=1;align=center;" vertex="1" parent="1">
          <mxGeometry x="404.77" y="1200" width="100" height="40" as="geometry" />
        </mxCell>
        <mxCell id="hbLjimjaeWcvPkLzuB9d-198" value="&lt;span style=&quot;text-wrap-mode: wrap;&quot;&gt;&lt;b&gt;Staff&lt;/b&gt;&lt;/span&gt;" style="text;html=1;align=center;verticalAlign=middle;resizable=0;points=[];autosize=1;strokeColor=none;fillColor=none;" vertex="1" parent="1">
          <mxGeometry x="400.77" y="1173" width="50" height="30" as="geometry" />
        </mxCell>
        <mxCell id="hbLjimjaeWcvPkLzuB9d-200" value="F_Name" style="ellipse;whiteSpace=wrap;html=1;align=center;" vertex="1" parent="1">
          <mxGeometry x="-20" y="500" width="55" height="20" as="geometry" />
        </mxCell>
        <mxCell id="hbLjimjaeWcvPkLzuB9d-201" value="L_Name" style="ellipse;whiteSpace=wrap;html=1;align=center;" vertex="1" parent="1">
          <mxGeometry x="25" y="465" width="60" height="20" as="geometry" />
        </mxCell>
        <mxCell id="hbLjimjaeWcvPkLzuB9d-202" value="" style="endArrow=none;html=1;rounded=0;exitX=0.5;exitY=1;exitDx=0;exitDy=0;entryX=0;entryY=0;entryDx=0;entryDy=0;" edge="1" parent="1" source="hbLjimjaeWcvPkLzuB9d-200" target="hbLjimjaeWcvPkLzuB9d-75">
          <mxGeometry relative="1" as="geometry">
            <mxPoint x="-645" y="630" as="sourcePoint" />
            <mxPoint x="41.59999999999991" y="571.3399999999999" as="targetPoint" />
          </mxGeometry>
        </mxCell>
        <mxCell id="hbLjimjaeWcvPkLzuB9d-203" value="" style="endArrow=none;html=1;rounded=0;exitX=0;exitY=1;exitDx=0;exitDy=0;entryX=0.363;entryY=0.095;entryDx=0;entryDy=0;entryPerimeter=0;" edge="1" parent="1" source="hbLjimjaeWcvPkLzuB9d-201" target="hbLjimjaeWcvPkLzuB9d-75">
          <mxGeometry relative="1" as="geometry">
            <mxPoint x="45" y="490" as="sourcePoint" />
            <mxPoint x="60" y="550" as="targetPoint" />
          </mxGeometry>
        </mxCell>
        <mxCell id="hbLjimjaeWcvPkLzuB9d-205" value="F_Name" style="whiteSpace=wrap;html=1;align=center;" vertex="1" parent="1">
          <mxGeometry x="604.77" y="1200" width="100" height="40" as="geometry" />
        </mxCell>
        <mxCell id="hbLjimjaeWcvPkLzuB9d-206" value="L_Name" style="whiteSpace=wrap;html=1;align=center;" vertex="1" parent="1">
          <mxGeometry x="704.77" y="1200" width="100" height="40" as="geometry" />
        </mxCell>
        <mxCell id="hbLjimjaeWcvPkLzuB9d-208" value="&lt;u&gt;ContactNumber&lt;/u&gt;" style="whiteSpace=wrap;html=1;align=center;" vertex="1" parent="1">
          <mxGeometry x="504.77" y="1280" width="100" height="40" as="geometry" />
        </mxCell>
        <mxCell id="hbLjimjaeWcvPkLzuB9d-266" style="edgeStyle=orthogonalEdgeStyle;rounded=0;orthogonalLoop=1;jettySize=auto;html=1;exitX=0;exitY=0.5;exitDx=0;exitDy=0;" edge="1" parent="1" source="hbLjimjaeWcvPkLzuB9d-212" target="hbLjimjaeWcvPkLzuB9d-263">
          <mxGeometry relative="1" as="geometry">
            <Array as="points">
              <mxPoint x="374.77" y="1370" />
              <mxPoint x="374.77" y="1490" />
              <mxPoint x="958.77" y="1490" />
            </Array>
          </mxGeometry>
        </mxCell>
        <mxCell id="hbLjimjaeWcvPkLzuB9d-267" value="Loand" style="edgeLabel;html=1;align=center;verticalAlign=middle;resizable=0;points=[];" vertex="1" connectable="0" parent="hbLjimjaeWcvPkLzuB9d-266">
          <mxGeometry x="0.2647" y="3" relative="1" as="geometry">
            <mxPoint as="offset" />
          </mxGeometry>
        </mxCell>
        <mxCell id="hbLjimjaeWcvPkLzuB9d-209" value="&lt;span style=&quot;text-decoration-line: underline;&quot;&gt;Staff_ID&lt;/span&gt;" style="whiteSpace=wrap;html=1;align=center;" vertex="1" parent="1">
          <mxGeometry x="404.77" y="1280" width="100" height="40" as="geometry" />
        </mxCell>
        <mxCell id="hbLjimjaeWcvPkLzuB9d-210" value="&lt;b style=&quot;text-wrap-mode: wrap;&quot;&gt;Staff&lt;/b&gt;&lt;b&gt;&lt;span style=&quot;text-wrap-mode: wrap;&quot;&gt;_&lt;/span&gt;&lt;span style=&quot;text-wrap-mode: wrap;&quot;&gt;ContactNumber&lt;/span&gt;&lt;/b&gt;" style="text;html=1;align=center;verticalAlign=middle;resizable=0;points=[];autosize=1;strokeColor=none;fillColor=none;" vertex="1" parent="1">
          <mxGeometry x="393.77" y="1250" width="150" height="30" as="geometry" />
        </mxCell>
        <mxCell id="hbLjimjaeWcvPkLzuB9d-211" value="ISBN" style="whiteSpace=wrap;html=1;align=center;" vertex="1" parent="1">
          <mxGeometry x="504.77" y="1350" width="100" height="40" as="geometry" />
        </mxCell>
        <mxCell id="hbLjimjaeWcvPkLzuB9d-273" style="edgeStyle=orthogonalEdgeStyle;rounded=0;orthogonalLoop=1;jettySize=auto;html=1;exitX=0;exitY=0.5;exitDx=0;exitDy=0;" edge="1" parent="1" source="hbLjimjaeWcvPkLzuB9d-212" target="hbLjimjaeWcvPkLzuB9d-272">
          <mxGeometry relative="1" as="geometry">
            <mxPoint x="354.77" y="1770" as="targetPoint" />
            <Array as="points">
              <mxPoint x="344.77" y="1370" />
              <mxPoint x="344.77" y="1740" />
              <mxPoint x="859.77" y="1740" />
            </Array>
          </mxGeometry>
        </mxCell>
        <mxCell id="hbLjimjaeWcvPkLzuB9d-274" value="Recived" style="edgeLabel;html=1;align=center;verticalAlign=middle;resizable=0;points=[];" vertex="1" connectable="0" parent="hbLjimjaeWcvPkLzuB9d-273">
          <mxGeometry x="-0.4074" relative="1" as="geometry">
            <mxPoint as="offset" />
          </mxGeometry>
        </mxCell>
        <mxCell id="hbLjimjaeWcvPkLzuB9d-212" value="&lt;span style=&quot;text-decoration-line: underline;&quot;&gt;Book_ID&lt;/span&gt;" style="whiteSpace=wrap;html=1;align=center;" vertex="1" parent="1">
          <mxGeometry x="404.77" y="1350" width="100" height="40" as="geometry" />
        </mxCell>
        <mxCell id="hbLjimjaeWcvPkLzuB9d-213" value="&lt;span style=&quot;text-wrap-mode: wrap;&quot;&gt;&lt;b&gt;Book&lt;/b&gt;&lt;/span&gt;" style="text;html=1;align=center;verticalAlign=middle;resizable=0;points=[];autosize=1;strokeColor=none;fillColor=none;" vertex="1" parent="1">
          <mxGeometry x="400.77" y="1320" width="50" height="30" as="geometry" />
        </mxCell>
        <mxCell id="hbLjimjaeWcvPkLzuB9d-214" value="Title" style="whiteSpace=wrap;html=1;align=center;" vertex="1" parent="1">
          <mxGeometry x="604.77" y="1350" width="100" height="40" as="geometry" />
        </mxCell>
        <mxCell id="hbLjimjaeWcvPkLzuB9d-215" value="Price" style="whiteSpace=wrap;html=1;align=center;" vertex="1" parent="1">
          <mxGeometry x="704.77" y="1350" width="100" height="40" as="geometry" />
        </mxCell>
        <mxCell id="hbLjimjaeWcvPkLzuB9d-216" value="ShelfLocation" style="whiteSpace=wrap;html=1;align=center;" vertex="1" parent="1">
          <mxGeometry x="804.77" y="1350" width="100" height="40" as="geometry" />
        </mxCell>
        <mxCell id="hbLjimjaeWcvPkLzuB9d-217" value="Genre" style="whiteSpace=wrap;html=1;align=center;" vertex="1" parent="1">
          <mxGeometry x="904.77" y="1350" width="100" height="40" as="geometry" />
        </mxCell>
        <mxCell id="hbLjimjaeWcvPkLzuB9d-218" value="AvailableStatus" style="whiteSpace=wrap;html=1;align=center;" vertex="1" parent="1">
          <mxGeometry x="1004.77" y="1350" width="100" height="40" as="geometry" />
        </mxCell>
        <mxCell id="hbLjimjaeWcvPkLzuB9d-219" value="Email" style="whiteSpace=wrap;html=1;align=center;" vertex="1" parent="1">
          <mxGeometry x="508.77" y="1440" width="100" height="40" as="geometry" />
        </mxCell>
        <mxCell id="hbLjimjaeWcvPkLzuB9d-280" style="edgeStyle=orthogonalEdgeStyle;rounded=0;orthogonalLoop=1;jettySize=auto;html=1;exitX=0;exitY=0.5;exitDx=0;exitDy=0;entryX=0.5;entryY=0;entryDx=0;entryDy=0;" edge="1" parent="1" source="hbLjimjaeWcvPkLzuB9d-220" target="hbLjimjaeWcvPkLzuB9d-279">
          <mxGeometry relative="1" as="geometry">
            <Array as="points">
              <mxPoint x="388.77" y="1460" />
              <mxPoint x="388.77" y="1570" />
              <mxPoint x="1059.77" y="1570" />
            </Array>
          </mxGeometry>
        </mxCell>
        <mxCell id="hbLjimjaeWcvPkLzuB9d-281" value="Has" style="edgeLabel;html=1;align=center;verticalAlign=middle;resizable=0;points=[];" vertex="1" connectable="0" parent="hbLjimjaeWcvPkLzuB9d-280">
          <mxGeometry x="0.5595" y="6" relative="1" as="geometry">
            <mxPoint x="-1" as="offset" />
          </mxGeometry>
        </mxCell>
        <mxCell id="hbLjimjaeWcvPkLzuB9d-283" style="edgeStyle=orthogonalEdgeStyle;rounded=0;orthogonalLoop=1;jettySize=auto;html=1;exitX=0;exitY=0.5;exitDx=0;exitDy=0;entryX=0.5;entryY=0;entryDx=0;entryDy=0;" edge="1" parent="1" source="hbLjimjaeWcvPkLzuB9d-220" target="hbLjimjaeWcvPkLzuB9d-282">
          <mxGeometry relative="1" as="geometry">
            <Array as="points">
              <mxPoint x="304.77" y="1460" />
              <mxPoint x="304.77" y="1840" />
              <mxPoint x="962.77" y="1840" />
            </Array>
          </mxGeometry>
        </mxCell>
        <mxCell id="hbLjimjaeWcvPkLzuB9d-284" value="Write" style="edgeLabel;html=1;align=center;verticalAlign=middle;resizable=0;points=[];" vertex="1" connectable="0" parent="hbLjimjaeWcvPkLzuB9d-283">
          <mxGeometry x="0.0946" y="-3" relative="1" as="geometry">
            <mxPoint as="offset" />
          </mxGeometry>
        </mxCell>
        <mxCell id="hbLjimjaeWcvPkLzuB9d-220" value="&lt;span style=&quot;text-decoration-line: underline;&quot;&gt;Member Id&lt;/span&gt;" style="whiteSpace=wrap;html=1;align=center;" vertex="1" parent="1">
          <mxGeometry x="408.77" y="1440" width="100" height="40" as="geometry" />
        </mxCell>
        <mxCell id="hbLjimjaeWcvPkLzuB9d-221" value="&lt;span style=&quot;text-wrap-mode: wrap;&quot;&gt;&lt;b&gt;Member&amp;nbsp;&lt;/b&gt;&lt;/span&gt;" style="text;html=1;align=center;verticalAlign=middle;resizable=0;points=[];autosize=1;strokeColor=none;fillColor=none;" vertex="1" parent="1">
          <mxGeometry x="401.77" y="1410" width="70" height="30" as="geometry" />
        </mxCell>
        <mxCell id="hbLjimjaeWcvPkLzuB9d-222" value="F_Name" style="whiteSpace=wrap;html=1;align=center;" vertex="1" parent="1">
          <mxGeometry x="608.77" y="1440" width="100" height="40" as="geometry" />
        </mxCell>
        <mxCell id="hbLjimjaeWcvPkLzuB9d-223" value="L_Name" style="whiteSpace=wrap;html=1;align=center;" vertex="1" parent="1">
          <mxGeometry x="708.77" y="1440" width="100" height="40" as="geometry" />
        </mxCell>
        <mxCell id="hbLjimjaeWcvPkLzuB9d-224" value="StartDate" style="whiteSpace=wrap;html=1;align=center;" vertex="1" parent="1">
          <mxGeometry x="808.77" y="1440" width="100" height="40" as="geometry" />
        </mxCell>
        <mxCell id="hbLjimjaeWcvPkLzuB9d-227" value="&lt;u&gt;ContactNumber&lt;/u&gt;" style="whiteSpace=wrap;html=1;align=center;" vertex="1" parent="1">
          <mxGeometry x="508.77" y="1520" width="100" height="40" as="geometry" />
        </mxCell>
        <mxCell id="hbLjimjaeWcvPkLzuB9d-228" value="&lt;span style=&quot;text-decoration-line: underline;&quot;&gt;Member Id&lt;/span&gt;" style="whiteSpace=wrap;html=1;align=center;" vertex="1" parent="1">
          <mxGeometry x="408.77" y="1520" width="100" height="40" as="geometry" />
        </mxCell>
        <mxCell id="hbLjimjaeWcvPkLzuB9d-229" value="&lt;b&gt;&lt;span style=&quot;text-wrap-mode: wrap;&quot;&gt;Member&amp;nbsp;&lt;/span&gt;&lt;span style=&quot;text-wrap-mode: wrap;&quot;&gt;_&lt;/span&gt;&lt;span style=&quot;text-wrap-mode: wrap;&quot;&gt;ContactNumber&lt;/span&gt;&lt;/b&gt;" style="text;html=1;align=center;verticalAlign=middle;resizable=0;points=[];autosize=1;strokeColor=none;fillColor=none;" vertex="1" parent="1">
          <mxGeometry x="403.77" y="1490" width="170" height="30" as="geometry" />
        </mxCell>
        <mxCell id="hbLjimjaeWcvPkLzuB9d-230" value="Status" style="whiteSpace=wrap;html=1;align=center;" vertex="1" parent="1">
          <mxGeometry x="508.77" y="1600" width="100" height="40" as="geometry" />
        </mxCell>
        <mxCell id="hbLjimjaeWcvPkLzuB9d-269" style="edgeStyle=orthogonalEdgeStyle;rounded=0;orthogonalLoop=1;jettySize=auto;html=1;exitX=0;exitY=0.5;exitDx=0;exitDy=0;entryX=0.5;entryY=0;entryDx=0;entryDy=0;" edge="1" parent="1" source="hbLjimjaeWcvPkLzuB9d-231" target="hbLjimjaeWcvPkLzuB9d-268">
          <mxGeometry relative="1" as="geometry">
            <Array as="points">
              <mxPoint x="388.77" y="1620" />
              <mxPoint x="388.77" y="1650" />
              <mxPoint x="962.77" y="1650" />
            </Array>
          </mxGeometry>
        </mxCell>
        <mxCell id="hbLjimjaeWcvPkLzuB9d-270" value="have" style="edgeLabel;html=1;align=center;verticalAlign=middle;resizable=0;points=[];" vertex="1" connectable="0" parent="hbLjimjaeWcvPkLzuB9d-269">
          <mxGeometry x="0.1228" y="1" relative="1" as="geometry">
            <mxPoint as="offset" />
          </mxGeometry>
        </mxCell>
        <mxCell id="hbLjimjaeWcvPkLzuB9d-231" value="&lt;span style=&quot;text-decoration-line: underline;&quot;&gt;Loan_ID&lt;/span&gt;" style="whiteSpace=wrap;html=1;align=center;" vertex="1" parent="1">
          <mxGeometry x="408.77" y="1600" width="100" height="40" as="geometry" />
        </mxCell>
        <mxCell id="hbLjimjaeWcvPkLzuB9d-232" value="ReturnDate" style="whiteSpace=wrap;html=1;align=center;" vertex="1" parent="1">
          <mxGeometry x="608.77" y="1600" width="100" height="40" as="geometry" />
        </mxCell>
        <mxCell id="hbLjimjaeWcvPkLzuB9d-233" value="DueDate" style="whiteSpace=wrap;html=1;align=center;" vertex="1" parent="1">
          <mxGeometry x="708.77" y="1600" width="100" height="40" as="geometry" />
        </mxCell>
        <mxCell id="hbLjimjaeWcvPkLzuB9d-234" value="LoanDate" style="whiteSpace=wrap;html=1;align=center;" vertex="1" parent="1">
          <mxGeometry x="808.77" y="1600" width="100" height="40" as="geometry" />
        </mxCell>
        <mxCell id="hbLjimjaeWcvPkLzuB9d-237" value="&lt;span style=&quot;text-wrap-mode: wrap;&quot;&gt;&lt;b&gt;Loan&lt;/b&gt;&lt;/span&gt;" style="text;html=1;align=center;verticalAlign=middle;resizable=0;points=[];autosize=1;strokeColor=none;fillColor=none;" vertex="1" parent="1">
          <mxGeometry x="411.77" y="1567" width="50" height="30" as="geometry" />
        </mxCell>
        <mxCell id="hbLjimjaeWcvPkLzuB9d-238" value="PaymentDate" style="whiteSpace=wrap;html=1;align=center;" vertex="1" parent="1">
          <mxGeometry x="511.77" y="1690" width="100" height="40" as="geometry" />
        </mxCell>
        <mxCell id="hbLjimjaeWcvPkLzuB9d-239" value="&lt;span style=&quot;text-decoration-line: underline;&quot;&gt;Fine Payment_Id&lt;/span&gt;" style="whiteSpace=wrap;html=1;align=center;" vertex="1" parent="1">
          <mxGeometry x="411.77" y="1690" width="100" height="40" as="geometry" />
        </mxCell>
        <mxCell id="hbLjimjaeWcvPkLzuB9d-240" value="Method" style="whiteSpace=wrap;html=1;align=center;" vertex="1" parent="1">
          <mxGeometry x="611.77" y="1690" width="100" height="40" as="geometry" />
        </mxCell>
        <mxCell id="hbLjimjaeWcvPkLzuB9d-241" value="PaymentDate" style="whiteSpace=wrap;html=1;align=center;" vertex="1" parent="1">
          <mxGeometry x="711.77" y="1690" width="100" height="40" as="geometry" />
        </mxCell>
        <mxCell id="hbLjimjaeWcvPkLzuB9d-242" value="Amount" style="whiteSpace=wrap;html=1;align=center;" vertex="1" parent="1">
          <mxGeometry x="811.77" y="1690" width="100" height="40" as="geometry" />
        </mxCell>
        <mxCell id="hbLjimjaeWcvPkLzuB9d-243" value="&lt;span style=&quot;text-wrap-mode: wrap;&quot;&gt;&lt;b&gt;Fine Payment&lt;/b&gt;&lt;/span&gt;" style="text;html=1;align=center;verticalAlign=middle;resizable=0;points=[];autosize=1;strokeColor=none;fillColor=none;" vertex="1" parent="1">
          <mxGeometry x="389.77" y="1657" width="100" height="30" as="geometry" />
        </mxCell>
        <mxCell id="hbLjimjaeWcvPkLzuB9d-249" value="Comments" style="whiteSpace=wrap;html=1;align=center;" vertex="1" parent="1">
          <mxGeometry x="508.77" y="1773" width="100" height="40" as="geometry" />
        </mxCell>
        <mxCell id="hbLjimjaeWcvPkLzuB9d-250" value="&lt;span style=&quot;text-decoration-line: underline;&quot;&gt;Review_Id&lt;/span&gt;" style="whiteSpace=wrap;html=1;align=center;" vertex="1" parent="1">
          <mxGeometry x="408.77" y="1773" width="100" height="40" as="geometry" />
        </mxCell>
        <mxCell id="hbLjimjaeWcvPkLzuB9d-251" value="Rating" style="whiteSpace=wrap;html=1;align=center;" vertex="1" parent="1">
          <mxGeometry x="608.77" y="1773" width="100" height="40" as="geometry" />
        </mxCell>
        <mxCell id="hbLjimjaeWcvPkLzuB9d-252" value="ReviewDate" style="whiteSpace=wrap;html=1;align=center;" vertex="1" parent="1">
          <mxGeometry x="708.77" y="1773" width="100" height="40" as="geometry" />
        </mxCell>
        <mxCell id="hbLjimjaeWcvPkLzuB9d-254" value="&lt;span style=&quot;text-wrap-mode: wrap;&quot;&gt;&lt;b&gt;Review&lt;/b&gt;&lt;/span&gt;" style="text;html=1;align=center;verticalAlign=middle;resizable=0;points=[];autosize=1;strokeColor=none;fillColor=none;" vertex="1" parent="1">
          <mxGeometry x="406.77" y="1740" width="60" height="30" as="geometry" />
        </mxCell>
        <mxCell id="hbLjimjaeWcvPkLzuB9d-256" value="&lt;span style=&quot;text-decoration-line: underline;&quot;&gt;Library_ID&lt;/span&gt;" style="whiteSpace=wrap;html=1;align=center;" vertex="1" parent="1">
          <mxGeometry x="804.77" y="1200" width="100" height="40" as="geometry" />
        </mxCell>
        <mxCell id="hbLjimjaeWcvPkLzuB9d-259" style="edgeStyle=orthogonalEdgeStyle;rounded=0;orthogonalLoop=1;jettySize=auto;html=1;exitX=0.5;exitY=1;exitDx=0;exitDy=0;entryX=0.5;entryY=0;entryDx=0;entryDy=0;" edge="1" parent="1">
          <mxGeometry relative="1" as="geometry">
            <mxPoint x="402.27" y="1070" as="sourcePoint" />
            <mxPoint x="1152.27" y="1360" as="targetPoint" />
            <Array as="points">
              <mxPoint x="364.77" y="1070" />
              <mxPoint x="364.77" y="1170" />
              <mxPoint x="1154.77" y="1170" />
              <mxPoint x="1154.77" y="1350" />
              <mxPoint x="1152.77" y="1350" />
            </Array>
          </mxGeometry>
        </mxCell>
        <mxCell id="hbLjimjaeWcvPkLzuB9d-262" value="Mange" style="edgeLabel;html=1;align=center;verticalAlign=middle;resizable=0;points=[];" vertex="1" connectable="0" parent="hbLjimjaeWcvPkLzuB9d-259">
          <mxGeometry x="0.4283" y="-1" relative="1" as="geometry">
            <mxPoint as="offset" />
          </mxGeometry>
        </mxCell>
        <mxCell id="hbLjimjaeWcvPkLzuB9d-261" value="&lt;span style=&quot;text-decoration-line: underline;&quot;&gt;Library_ID&lt;/span&gt;" style="whiteSpace=wrap;html=1;align=center;" vertex="1" parent="1">
          <mxGeometry x="1104.77" y="1350" width="100" height="40" as="geometry" />
        </mxCell>
        <mxCell id="hbLjimjaeWcvPkLzuB9d-263" value="&lt;span style=&quot;text-decoration-line: underline;&quot;&gt;Book_ID&lt;/span&gt;" style="whiteSpace=wrap;html=1;align=center;" vertex="1" parent="1">
          <mxGeometry x="908.77" y="1600" width="100" height="40" as="geometry" />
        </mxCell>
        <mxCell id="hbLjimjaeWcvPkLzuB9d-268" value="&lt;span style=&quot;text-decoration-line: underline;&quot;&gt;Loan_ID&lt;/span&gt;" style="whiteSpace=wrap;html=1;align=center;" vertex="1" parent="1">
          <mxGeometry x="912.77" y="1690" width="100" height="40" as="geometry" />
        </mxCell>
        <mxCell id="hbLjimjaeWcvPkLzuB9d-272" value="&lt;span style=&quot;text-decoration-line: underline;&quot;&gt;Book_ID&lt;/span&gt;" style="whiteSpace=wrap;html=1;align=center;" vertex="1" parent="1">
          <mxGeometry x="809.77" y="1773" width="100" height="40" as="geometry" />
        </mxCell>
        <mxCell id="hbLjimjaeWcvPkLzuB9d-275" value="&lt;span style=&quot;text-decoration-line: underline;&quot;&gt;Member Id&lt;/span&gt;" style="whiteSpace=wrap;html=1;align=center;" vertex="1" parent="1">
          <mxGeometry x="1204.77" y="1350" width="100" height="40" as="geometry" />
        </mxCell>
        <mxCell id="hbLjimjaeWcvPkLzuB9d-277" style="edgeStyle=orthogonalEdgeStyle;rounded=0;orthogonalLoop=1;jettySize=auto;html=1;entryX=0.375;entryY=1.008;entryDx=0;entryDy=0;entryPerimeter=0;" edge="1" parent="1" source="hbLjimjaeWcvPkLzuB9d-220" target="hbLjimjaeWcvPkLzuB9d-275">
          <mxGeometry relative="1" as="geometry">
            <Array as="points">
              <mxPoint x="458.77" y="1510" />
              <mxPoint x="1241.77" y="1510" />
            </Array>
          </mxGeometry>
        </mxCell>
        <mxCell id="hbLjimjaeWcvPkLzuB9d-278" value="borrow" style="edgeLabel;html=1;align=center;verticalAlign=middle;resizable=0;points=[];" vertex="1" connectable="0" parent="hbLjimjaeWcvPkLzuB9d-277">
          <mxGeometry x="0.3031" y="-2" relative="1" as="geometry">
            <mxPoint x="-1" as="offset" />
          </mxGeometry>
        </mxCell>
        <mxCell id="hbLjimjaeWcvPkLzuB9d-279" value="&lt;span style=&quot;text-decoration-line: underline;&quot;&gt;Member Id&lt;/span&gt;" style="whiteSpace=wrap;html=1;align=center;" vertex="1" parent="1">
          <mxGeometry x="1009.77" y="1600" width="100" height="40" as="geometry" />
        </mxCell>
        <mxCell id="hbLjimjaeWcvPkLzuB9d-282" value="&lt;span style=&quot;text-decoration-line: underline;&quot;&gt;Member Id&lt;/span&gt;" style="whiteSpace=wrap;html=1;align=center;" vertex="1" parent="1">
          <mxGeometry x="912.77" y="1773" width="100" height="40" as="geometry" />
        </mxCell>
        <mxCell id="hbLjimjaeWcvPkLzuB9d-285" value="&lt;br&gt;&lt;b&gt;Mapping&lt;/b&gt;" style="text;strokeColor=none;fillColor=none;align=left;verticalAlign=middle;spacingLeft=4;spacingRight=4;overflow=hidden;points=[[0,0.5],[1,0.5]];portConstraint=eastwest;rotatable=0;whiteSpace=wrap;html=1;" vertex="1" parent="1">
          <mxGeometry x="740" y="850" width="300" height="190" as="geometry" />
        </mxCell>
        <mxCell id="hbLjimjaeWcvPkLzuB9d-286" value="" style="endArrow=none;html=1;rounded=0;" edge="1" parent="1">
          <mxGeometry relative="1" as="geometry">
            <mxPoint y="1880" as="sourcePoint" />
            <mxPoint x="1700" y="1880" as="targetPoint" />
          </mxGeometry>
        </mxCell>
        <mxCell id="hbLjimjaeWcvPkLzuB9d-287" value="&lt;b&gt;Normalization&lt;/b&gt;" style="text;strokeColor=none;fillColor=none;align=left;verticalAlign=middle;spacingLeft=4;spacingRight=4;overflow=hidden;points=[[0,0.5],[1,0.5]];portConstraint=eastwest;rotatable=0;whiteSpace=wrap;html=1;" vertex="1" parent="1">
          <mxGeometry x="740" y="1810" width="300" height="190" as="geometry" />
        </mxCell>
        <mxCell id="hbLjimjaeWcvPkLzuB9d-288" value="Name" style="whiteSpace=wrap;html=1;align=center;" vertex="1" parent="1">
          <mxGeometry x="661.27" y="1920" width="100" height="40" as="geometry" />
        </mxCell>
        <mxCell id="hbLjimjaeWcvPkLzuB9d-289" value="&lt;span style=&quot;text-decoration-line: underline;&quot;&gt;Library_ID&lt;/span&gt;" style="whiteSpace=wrap;html=1;align=center;" vertex="1" parent="1">
          <mxGeometry x="561.27" y="1920" width="100" height="40" as="geometry" />
        </mxCell>
        <mxCell id="hbLjimjaeWcvPkLzuB9d-290" value="Location" style="whiteSpace=wrap;html=1;align=center;" vertex="1" parent="1">
          <mxGeometry x="761.27" y="1920" width="100" height="40" as="geometry" />
        </mxCell>
        <mxCell id="hbLjimjaeWcvPkLzuB9d-291" value="EstablishedYear" style="whiteSpace=wrap;html=1;align=center;" vertex="1" parent="1">
          <mxGeometry x="861.27" y="1920" width="100" height="40" as="geometry" />
        </mxCell>
        <mxCell id="hbLjimjaeWcvPkLzuB9d-292" value="&lt;span style=&quot;text-wrap-mode: wrap;&quot;&gt;&lt;b&gt;Library&lt;/b&gt;&lt;/span&gt;" style="text;html=1;align=center;verticalAlign=middle;resizable=0;points=[];autosize=1;strokeColor=none;fillColor=none;" vertex="1" parent="1">
          <mxGeometry x="556.27" y="1890" width="60" height="30" as="geometry" />
        </mxCell>
        <mxCell id="hbLjimjaeWcvPkLzuB9d-293" value="&lt;table&gt;&lt;tbody&gt;&lt;tr&gt;&lt;td data-end=&quot;324&quot; data-start=&quot;299&quot; data-col-size=&quot;sm&quot;&gt;Central Library&lt;/td&gt;&lt;/tr&gt;&lt;/tbody&gt;&lt;/table&gt;&lt;table&gt;&lt;tbody&gt;&lt;tr&gt;&lt;td data-end=&quot;339&quot; data-start=&quot;324&quot; data-col-size=&quot;sm&quot;&gt;&lt;/td&gt;&lt;/tr&gt;&lt;/tbody&gt;&lt;/table&gt;" style="whiteSpace=wrap;html=1;align=center;" vertex="1" parent="1">
          <mxGeometry x="661.27" y="1960" width="100" height="40" as="geometry" />
        </mxCell>
        <mxCell id="hbLjimjaeWcvPkLzuB9d-294" value="1" style="whiteSpace=wrap;html=1;align=center;" vertex="1" parent="1">
          <mxGeometry x="561.27" y="1960" width="100" height="40" as="geometry" />
        </mxCell>
        <mxCell id="hbLjimjaeWcvPkLzuB9d-295" value="Downtown" style="whiteSpace=wrap;html=1;align=center;" vertex="1" parent="1">
          <mxGeometry x="761.27" y="1960" width="100" height="40" as="geometry" />
        </mxCell>
        <mxCell id="hbLjimjaeWcvPkLzuB9d-296" value="1985" style="whiteSpace=wrap;html=1;align=center;" vertex="1" parent="1">
          <mxGeometry x="861.27" y="1960" width="100" height="40" as="geometry" />
        </mxCell>
        <mxCell id="hbLjimjaeWcvPkLzuB9d-297" value="&lt;table&gt;&lt;tbody&gt;&lt;tr&gt;&lt;td data-col-size=&quot;sm&quot; data-end=&quot;398&quot; data-start=&quot;373&quot;&gt;Westside Branch&lt;/td&gt;&lt;/tr&gt;&lt;/tbody&gt;&lt;/table&gt;&lt;table&gt;&lt;tbody&gt;&lt;tr&gt;&lt;td data-col-size=&quot;sm&quot; data-end=&quot;413&quot; data-start=&quot;398&quot;&gt;&lt;/td&gt;&lt;/tr&gt;&lt;/tbody&gt;&lt;/table&gt;" style="whiteSpace=wrap;html=1;align=center;" vertex="1" parent="1">
          <mxGeometry x="661.77" y="2000" width="100" height="40" as="geometry" />
        </mxCell>
        <mxCell id="hbLjimjaeWcvPkLzuB9d-298" value="2" style="whiteSpace=wrap;html=1;align=center;" vertex="1" parent="1">
          <mxGeometry x="561.77" y="2000" width="100" height="40" as="geometry" />
        </mxCell>
        <mxCell id="hbLjimjaeWcvPkLzuB9d-299" value="&lt;table&gt;&lt;tbody&gt;&lt;tr&gt;&lt;td data-col-size=&quot;sm&quot; data-end=&quot;413&quot; data-start=&quot;398&quot;&gt;West City&lt;/td&gt;&lt;/tr&gt;&lt;/tbody&gt;&lt;/table&gt;&lt;table&gt;&lt;tbody&gt;&lt;tr&gt;&lt;td data-end=&quot;433&quot; data-start=&quot;413&quot; data-col-size=&quot;sm&quot;&gt;&lt;/td&gt;&lt;/tr&gt;&lt;/tbody&gt;&lt;/table&gt;" style="whiteSpace=wrap;html=1;align=center;" vertex="1" parent="1">
          <mxGeometry x="761.77" y="2000" width="100" height="40" as="geometry" />
        </mxCell>
        <mxCell id="hbLjimjaeWcvPkLzuB9d-300" value="2005" style="whiteSpace=wrap;html=1;align=center;" vertex="1" parent="1">
          <mxGeometry x="861.77" y="2000" width="100" height="40" as="geometry" />
        </mxCell>
        <mxCell id="hbLjimjaeWcvPkLzuB9d-301" value="&lt;table&gt;&lt;tbody&gt;&lt;tr&gt;&lt;td data-col-size=&quot;sm&quot; data-end=&quot;472&quot; data-start=&quot;447&quot;&gt;East Knowledge Center&lt;/td&gt;&lt;/tr&gt;&lt;/tbody&gt;&lt;/table&gt;&lt;table&gt;&lt;tbody&gt;&lt;tr&gt;&lt;td data-col-size=&quot;sm&quot; data-end=&quot;487&quot; data-start=&quot;472&quot;&gt;&lt;/td&gt;&lt;/tr&gt;&lt;/tbody&gt;&lt;/table&gt;" style="whiteSpace=wrap;html=1;align=center;" vertex="1" parent="1">
          <mxGeometry x="661.27" y="2040" width="100" height="40" as="geometry" />
        </mxCell>
        <mxCell id="hbLjimjaeWcvPkLzuB9d-302" value="3" style="whiteSpace=wrap;html=1;align=center;" vertex="1" parent="1">
          <mxGeometry x="561.27" y="2040" width="100" height="40" as="geometry" />
        </mxCell>
        <mxCell id="hbLjimjaeWcvPkLzuB9d-303" value="&lt;table&gt;&lt;tbody&gt;&lt;tr&gt;&lt;td data-col-size=&quot;sm&quot; data-end=&quot;487&quot; data-start=&quot;472&quot;&gt;East Town&lt;/td&gt;&lt;/tr&gt;&lt;/tbody&gt;&lt;/table&gt;&lt;table&gt;&lt;tbody&gt;&lt;tr&gt;&lt;td data-end=&quot;507&quot; data-start=&quot;487&quot; data-col-size=&quot;sm&quot;&gt;&lt;/td&gt;&lt;/tr&gt;&lt;/tbody&gt;&lt;/table&gt;" style="whiteSpace=wrap;html=1;align=center;" vertex="1" parent="1">
          <mxGeometry x="761.27" y="2040" width="100" height="40" as="geometry" />
        </mxCell>
        <mxCell id="hbLjimjaeWcvPkLzuB9d-304" value="1999" style="whiteSpace=wrap;html=1;align=center;" vertex="1" parent="1">
          <mxGeometry x="861.27" y="2040" width="100" height="40" as="geometry" />
        </mxCell>
        <mxCell id="hbLjimjaeWcvPkLzuB9d-305" value="ContactNumber" style="whiteSpace=wrap;html=1;align=center;" vertex="1" parent="1">
          <mxGeometry x="961.27" y="1920" width="100" height="40" as="geometry" />
        </mxCell>
        <mxCell id="hbLjimjaeWcvPkLzuB9d-306" value="987876,96745" style="whiteSpace=wrap;html=1;align=center;" vertex="1" parent="1">
          <mxGeometry x="961.27" y="1960" width="100" height="40" as="geometry" />
        </mxCell>
        <mxCell id="hbLjimjaeWcvPkLzuB9d-307" value="94523,968345" style="whiteSpace=wrap;html=1;align=center;" vertex="1" parent="1">
          <mxGeometry x="961.77" y="2000" width="100" height="40" as="geometry" />
        </mxCell>
        <mxCell id="hbLjimjaeWcvPkLzuB9d-308" value="097669" style="whiteSpace=wrap;html=1;align=center;" vertex="1" parent="1">
          <mxGeometry x="961.77" y="2040" width="100" height="40" as="geometry" />
        </mxCell>
        <mxCell id="hbLjimjaeWcvPkLzuB9d-309" value="&lt;span style=&quot;text-wrap-mode: wrap;&quot;&gt;&lt;b&gt;1NF:&lt;/b&gt;&lt;/span&gt;" style="text;html=1;align=center;verticalAlign=middle;resizable=0;points=[];autosize=1;strokeColor=none;fillColor=none;" vertex="1" parent="1">
          <mxGeometry x="560" y="2090" width="50" height="30" as="geometry" />
        </mxCell>
        <mxCell id="hbLjimjaeWcvPkLzuB9d-310" value="Name" style="whiteSpace=wrap;html=1;align=center;" vertex="1" parent="1">
          <mxGeometry x="660" y="2120" width="100" height="40" as="geometry" />
        </mxCell>
        <mxCell id="hbLjimjaeWcvPkLzuB9d-311" value="&lt;span style=&quot;text-decoration-line: underline;&quot;&gt;Library_ID&lt;/span&gt;" style="whiteSpace=wrap;html=1;align=center;" vertex="1" parent="1">
          <mxGeometry x="560" y="2120" width="100" height="40" as="geometry" />
        </mxCell>
        <mxCell id="hbLjimjaeWcvPkLzuB9d-312" value="Location" style="whiteSpace=wrap;html=1;align=center;" vertex="1" parent="1">
          <mxGeometry x="760" y="2120" width="100" height="40" as="geometry" />
        </mxCell>
        <mxCell id="hbLjimjaeWcvPkLzuB9d-313" value="EstablishedYear" style="whiteSpace=wrap;html=1;align=center;" vertex="1" parent="1">
          <mxGeometry x="860" y="2120" width="100" height="40" as="geometry" />
        </mxCell>
        <mxCell id="hbLjimjaeWcvPkLzuB9d-314" value="&lt;table&gt;&lt;tbody&gt;&lt;tr&gt;&lt;td data-end=&quot;324&quot; data-start=&quot;299&quot; data-col-size=&quot;sm&quot;&gt;Central Library&lt;/td&gt;&lt;/tr&gt;&lt;/tbody&gt;&lt;/table&gt;&lt;table&gt;&lt;tbody&gt;&lt;tr&gt;&lt;td data-end=&quot;339&quot; data-start=&quot;324&quot; data-col-size=&quot;sm&quot;&gt;&lt;/td&gt;&lt;/tr&gt;&lt;/tbody&gt;&lt;/table&gt;" style="whiteSpace=wrap;html=1;align=center;" vertex="1" parent="1">
          <mxGeometry x="660" y="2160" width="100" height="40" as="geometry" />
        </mxCell>
        <mxCell id="hbLjimjaeWcvPkLzuB9d-315" value="1" style="whiteSpace=wrap;html=1;align=center;" vertex="1" parent="1">
          <mxGeometry x="560" y="2160" width="100" height="40" as="geometry" />
        </mxCell>
        <mxCell id="hbLjimjaeWcvPkLzuB9d-316" value="Downtown" style="whiteSpace=wrap;html=1;align=center;" vertex="1" parent="1">
          <mxGeometry x="760" y="2160" width="100" height="40" as="geometry" />
        </mxCell>
        <mxCell id="hbLjimjaeWcvPkLzuB9d-317" value="1985" style="whiteSpace=wrap;html=1;align=center;" vertex="1" parent="1">
          <mxGeometry x="860" y="2160" width="100" height="40" as="geometry" />
        </mxCell>
        <mxCell id="hbLjimjaeWcvPkLzuB9d-318" value="&lt;table&gt;&lt;tbody&gt;&lt;tr&gt;&lt;td data-col-size=&quot;sm&quot; data-end=&quot;398&quot; data-start=&quot;373&quot;&gt;Westside Branch&lt;/td&gt;&lt;/tr&gt;&lt;/tbody&gt;&lt;/table&gt;&lt;table&gt;&lt;tbody&gt;&lt;tr&gt;&lt;td data-col-size=&quot;sm&quot; data-end=&quot;413&quot; data-start=&quot;398&quot;&gt;&lt;/td&gt;&lt;/tr&gt;&lt;/tbody&gt;&lt;/table&gt;" style="whiteSpace=wrap;html=1;align=center;" vertex="1" parent="1">
          <mxGeometry x="660" y="2200" width="100" height="40" as="geometry" />
        </mxCell>
        <mxCell id="hbLjimjaeWcvPkLzuB9d-319" value="2" style="whiteSpace=wrap;html=1;align=center;" vertex="1" parent="1">
          <mxGeometry x="560" y="2200" width="100" height="40" as="geometry" />
        </mxCell>
        <mxCell id="hbLjimjaeWcvPkLzuB9d-320" value="&lt;table&gt;&lt;tbody&gt;&lt;tr&gt;&lt;td data-col-size=&quot;sm&quot; data-end=&quot;413&quot; data-start=&quot;398&quot;&gt;West City&lt;/td&gt;&lt;/tr&gt;&lt;/tbody&gt;&lt;/table&gt;&lt;table&gt;&lt;tbody&gt;&lt;tr&gt;&lt;td data-end=&quot;433&quot; data-start=&quot;413&quot; data-col-size=&quot;sm&quot;&gt;&lt;/td&gt;&lt;/tr&gt;&lt;/tbody&gt;&lt;/table&gt;" style="whiteSpace=wrap;html=1;align=center;" vertex="1" parent="1">
          <mxGeometry x="760" y="2200" width="100" height="40" as="geometry" />
        </mxCell>
        <mxCell id="hbLjimjaeWcvPkLzuB9d-321" value="2005" style="whiteSpace=wrap;html=1;align=center;" vertex="1" parent="1">
          <mxGeometry x="860" y="2200" width="100" height="40" as="geometry" />
        </mxCell>
        <mxCell id="hbLjimjaeWcvPkLzuB9d-322" value="&lt;table&gt;&lt;tbody&gt;&lt;tr&gt;&lt;td data-col-size=&quot;sm&quot; data-end=&quot;472&quot; data-start=&quot;447&quot;&gt;East Knowledge Center&lt;/td&gt;&lt;/tr&gt;&lt;/tbody&gt;&lt;/table&gt;&lt;table&gt;&lt;tbody&gt;&lt;tr&gt;&lt;td data-col-size=&quot;sm&quot; data-end=&quot;487&quot; data-start=&quot;472&quot;&gt;&lt;/td&gt;&lt;/tr&gt;&lt;/tbody&gt;&lt;/table&gt;" style="whiteSpace=wrap;html=1;align=center;" vertex="1" parent="1">
          <mxGeometry x="660" y="2240" width="100" height="40" as="geometry" />
        </mxCell>
        <mxCell id="hbLjimjaeWcvPkLzuB9d-323" value="3" style="whiteSpace=wrap;html=1;align=center;" vertex="1" parent="1">
          <mxGeometry x="560" y="2240" width="100" height="40" as="geometry" />
        </mxCell>
        <mxCell id="hbLjimjaeWcvPkLzuB9d-324" value="&lt;table&gt;&lt;tbody&gt;&lt;tr&gt;&lt;td data-col-size=&quot;sm&quot; data-end=&quot;487&quot; data-start=&quot;472&quot;&gt;East Town&lt;/td&gt;&lt;/tr&gt;&lt;/tbody&gt;&lt;/table&gt;&lt;table&gt;&lt;tbody&gt;&lt;tr&gt;&lt;td data-end=&quot;507&quot; data-start=&quot;487&quot; data-col-size=&quot;sm&quot;&gt;&lt;/td&gt;&lt;/tr&gt;&lt;/tbody&gt;&lt;/table&gt;" style="whiteSpace=wrap;html=1;align=center;" vertex="1" parent="1">
          <mxGeometry x="760" y="2240" width="100" height="40" as="geometry" />
        </mxCell>
        <mxCell id="hbLjimjaeWcvPkLzuB9d-325" value="1999" style="whiteSpace=wrap;html=1;align=center;" vertex="1" parent="1">
          <mxGeometry x="860" y="2240" width="100" height="40" as="geometry" />
        </mxCell>
        <mxCell id="hbLjimjaeWcvPkLzuB9d-326" value="ContactNumber" style="whiteSpace=wrap;html=1;align=center;" vertex="1" parent="1">
          <mxGeometry x="758.5" y="2290" width="100" height="40" as="geometry" />
        </mxCell>
        <mxCell id="hbLjimjaeWcvPkLzuB9d-327" value="987876" style="whiteSpace=wrap;html=1;align=center;" vertex="1" parent="1">
          <mxGeometry x="758.5" y="2330" width="100" height="40" as="geometry" />
        </mxCell>
        <mxCell id="hbLjimjaeWcvPkLzuB9d-328" value="94523" style="whiteSpace=wrap;html=1;align=center;" vertex="1" parent="1">
          <mxGeometry x="759" y="2410" width="100" height="40" as="geometry" />
        </mxCell>
        <mxCell id="hbLjimjaeWcvPkLzuB9d-329" value="097669" style="whiteSpace=wrap;html=1;align=center;" vertex="1" parent="1">
          <mxGeometry x="759.5" y="2490" width="100" height="40" as="geometry" />
        </mxCell>
        <mxCell id="hbLjimjaeWcvPkLzuB9d-334" value="96745" style="whiteSpace=wrap;html=1;align=center;" vertex="1" parent="1">
          <mxGeometry x="758.77" y="2370" width="100" height="40" as="geometry" />
        </mxCell>
        <mxCell id="hbLjimjaeWcvPkLzuB9d-344" value="968345" style="whiteSpace=wrap;html=1;align=center;" vertex="1" parent="1">
          <mxGeometry x="759" y="2450" width="100" height="40" as="geometry" />
        </mxCell>
        <mxCell id="hbLjimjaeWcvPkLzuB9d-345" value="&lt;span style=&quot;text-decoration-line: underline;&quot;&gt;Library_ID&lt;/span&gt;" style="whiteSpace=wrap;html=1;align=center;" vertex="1" parent="1">
          <mxGeometry x="657.5" y="2290" width="100" height="40" as="geometry" />
        </mxCell>
        <mxCell id="hbLjimjaeWcvPkLzuB9d-346" value="1" style="whiteSpace=wrap;html=1;align=center;" vertex="1" parent="1">
          <mxGeometry x="657.5" y="2330" width="100" height="40" as="geometry" />
        </mxCell>
        <mxCell id="hbLjimjaeWcvPkLzuB9d-347" value="2" style="whiteSpace=wrap;html=1;align=center;" vertex="1" parent="1">
          <mxGeometry x="658" y="2410" width="100" height="40" as="geometry" />
        </mxCell>
        <mxCell id="hbLjimjaeWcvPkLzuB9d-348" value="3" style="whiteSpace=wrap;html=1;align=center;" vertex="1" parent="1">
          <mxGeometry x="658" y="2490" width="100" height="40" as="geometry" />
        </mxCell>
        <mxCell id="hbLjimjaeWcvPkLzuB9d-349" value="1" style="whiteSpace=wrap;html=1;align=center;" vertex="1" parent="1">
          <mxGeometry x="657.77" y="2370" width="100" height="40" as="geometry" />
        </mxCell>
        <mxCell id="hbLjimjaeWcvPkLzuB9d-350" value="2" style="whiteSpace=wrap;html=1;align=center;" vertex="1" parent="1">
          <mxGeometry x="658" y="2450" width="100" height="40" as="geometry" />
        </mxCell>
        <mxCell id="hbLjimjaeWcvPkLzuB9d-351" value="Position" style="whiteSpace=wrap;html=1;align=center;" vertex="1" parent="1">
          <mxGeometry x="656.27" y="2610" width="100" height="40" as="geometry" />
        </mxCell>
        <mxCell id="hbLjimjaeWcvPkLzuB9d-352" value="Staff_ID" style="whiteSpace=wrap;html=1;align=center;" vertex="1" parent="1">
          <mxGeometry x="556.27" y="2610" width="100" height="40" as="geometry" />
        </mxCell>
        <mxCell id="hbLjimjaeWcvPkLzuB9d-353" value="F_Name" style="whiteSpace=wrap;html=1;align=center;" vertex="1" parent="1">
          <mxGeometry x="756.27" y="2610" width="100" height="40" as="geometry" />
        </mxCell>
        <mxCell id="hbLjimjaeWcvPkLzuB9d-354" value="L_Name" style="whiteSpace=wrap;html=1;align=center;" vertex="1" parent="1">
          <mxGeometry x="856.27" y="2610" width="100" height="40" as="geometry" />
        </mxCell>
        <mxCell id="hbLjimjaeWcvPkLzuB9d-355" value="&lt;span style=&quot;text-decoration-line: underline;&quot;&gt;Library_ID&lt;/span&gt;" style="whiteSpace=wrap;html=1;align=center;" vertex="1" parent="1">
          <mxGeometry x="956.27" y="2610" width="100" height="40" as="geometry" />
        </mxCell>
        <mxCell id="hbLjimjaeWcvPkLzuB9d-356" value="&lt;b style=&quot;forced-color-adjust: none; color: rgb(0, 0, 0); font-family: Helvetica; font-size: 12px; font-style: normal; font-variant-ligatures: normal; font-variant-caps: normal; letter-spacing: normal; orphans: 2; text-align: center; text-indent: 0px; text-transform: none; widows: 2; word-spacing: 0px; -webkit-text-stroke-width: 0px; white-space: normal; background-color: rgb(236, 236, 236); text-decoration-thickness: initial; text-decoration-style: initial; text-decoration-color: initial;&quot;&gt;Staff&lt;/b&gt;" style="text;whiteSpace=wrap;html=1;" vertex="1" parent="1">
          <mxGeometry x="572.5" y="2580" width="60" height="40" as="geometry" />
        </mxCell>
        <mxCell id="hbLjimjaeWcvPkLzuB9d-357" value="&lt;u&gt;ContactNumber&lt;/u&gt;" style="whiteSpace=wrap;html=1;align=center;" vertex="1" parent="1">
          <mxGeometry x="1056.27" y="2610" width="100" height="40" as="geometry" />
        </mxCell>
      </root>
    </mxGraphModel>
  </diagram>
</mxfile>
